<?xml version="1.0" encoding="utf-8"?>
<!-- Generator: Adobe Illustrator 22.0.0, SVG Export Plug-In . SVG Version: 6.00 Build 0)  -->
<svg version="1.1" xmlns="http://www.w3.org/2000/svg" xmlns:xlink="http://www.w3.org/1999/xlink" x="0px" y="0px"
	 viewBox="0 0 1000.1 997.1" style="enable-background:new 0 0 1000.1 997.1;" xml:space="preserve">
<style type="text/css">
	.st0{fill:#F94E4E;}
	.st1{fill:#345BB2;}
</style>
<g id="sun">
	<g>
		<path class="st0" d="M427.3,421.4C427.3,421.4,427.3,421.4,427.3,421.4L218.7,212.8c-9.6-9.6-25.4-9.6-35.1,0l-4.8,4.8
			c-9.6,9.6-9.6,25.4,0,35.1l207,207c1.7-2.4,3.5-4.7,5.4-7C401.4,440.4,413.6,429.8,427.3,421.4z"/>
		<path class="st0" d="M519.5,402.1V102.2c0-11.5-9.4-20.9-20.9-20.9h-5.8c-11.5,0-20.9,9.4-20.9,20.9v301.6
			c9.3-1.9,19-2.9,28.8-2.9C507.1,400.9,513.4,401.3,519.5,402.1z"/>
		<path class="st0" d="M608.2,450.4c2.2,2.6,4.3,5.2,6.3,7.9l198.2-198.2c9.7-9.7,9.7-25.6,0-35.3l-4.9-4.9
			c-9.7-9.7-25.6-9.7-35.3,0L572.3,420.3C585.9,428.3,598,438.5,608.2,450.4z"/>
		<path class="st0" d="M360.9,521.2H58.6c-11.5,0-20.9,9.4-20.9,20.9v9.5h322c-0.2-3.1-0.3-6.2-0.3-9.3
			C359.3,535.1,359.8,528.1,360.9,521.2z"/>
		<path class="st0" d="M947.2,521.2H640.6c1,6.9,1.6,13.9,1.6,21.1c0,3.1-0.1,6.2-0.3,9.3h326.3v-9.5
			C968.1,530.6,958.7,521.2,947.2,521.2z"/>
		<g>
			<path class="st0" d="M640.6,521.2c-3.5-23.3-12.7-44.8-26.1-62.9c-2-2.7-4.1-5.4-6.3-7.9c-10.2-11.9-22.4-22.1-36-30.1
				c-0.3-0.2-0.5-0.3-0.8-0.5c-15.7-9.1-33.2-15.2-52-17.7c-6.1-0.8-12.4-1.2-18.8-1.2c-9.9,0-19.5,1-28.8,2.9
				c-16,3.3-31,9.3-44.6,17.6c0,0,0,0,0,0c-13.7,8.3-25.9,19-36,31.3c-1.9,2.3-3.7,4.6-5.4,7c-12.8,17.8-21.6,38.8-25,61.5
				c-1,6.9-1.6,13.9-1.6,21.1c0,3.1,0.1,6.2,0.3,9.3h50.3h176h56c0.2-3.1,0.3-6.2,0.3-9.3C642.2,535.1,641.6,528.1,640.6,521.2z"/>
		</g>
	</g>
</g>
<g id="snow_x5F_flake">
	<g>
		<path class="st1" d="M774.9,622h-70.7c-0.2,3-0.3,6-0.3,9.1c0,7.2,0.5,14.2,1.6,21.1h43.1C758.7,643.4,767.6,633.2,774.9,622z"/>
		<path class="st1" d="M815.2,652.1h130.5c11.5,0,20.9-9.4,20.9-20.9V622H785.1L815.2,652.1z"/>
		<path class="st1" d="M37.7,622v9.2c0,11.5,9.4,20.9,20.9,20.9h116.7l30.2-30.2H37.7z"/>
		<path class="st1" d="M322,631.2V622H211.7c9.8,10.7,21.2,20,33.8,27.3l-2.9,2.9h100.3C331.4,652.1,322,642.7,322,631.2z"/>
		<path class="st1" d="M495,650.5c8.8-8.5,16.5-18.1,22.8-28.6h-57.6C470.2,633.2,482,642.9,495,650.5z"/>
		<path class="st1" d="M322,622v9.2c0,11.5,9.4,20.9,20.9,20.9h78.3h5.4l30.2-30.2H322z"/>
		<path class="st1" d="M704.2,622H521.8l30.2,30.2h41.2h112.3c-1-6.9-1.6-13.9-1.6-21.1C703.9,628,704,625,704.2,622z"/>
		<path class="st1" d="M774.9,622c-7.3,11.3-16.2,21.4-26.4,30.2c-0.1,0.1-0.2,0.2-0.3,0.3l166.7,166.7c8.1,8.1,21.4,8.1,29.6,0
			l4.1-4.1c8.1-8.1,8.1-21.4,0-29.6L815.2,652.1L785.1,622H774.9z"/>
		<path class="st1" d="M211.7,622h-6.3l-30.2,30.2L42,785.4c-8.1,8.1-8.1,21.4,0,29.6l4.1,4.1c8.1,8.1,21.4,8.1,29.6,0l166.9-166.9
			l2.9-2.9C232.8,641.9,221.4,632.7,211.7,622z"/>
		<path class="st1" d="M495,650.5c-13.1-7.6-24.8-17.3-34.8-28.6h-3.6l-30.2,30.2l-74.2,74.2l-27.7,27.7l-120.5,8
			c-11.5,0.8-20.2,10.8-19.5,22.3l0.4,5.8c0.8,11.5,10.8,20.2,22.3,19.5l66.2-4.4l-87.8,87.8c-8.1,8.1-8.1,21.4,0,29.6l4.1,4.1
			c8.1,8.1,21.4,8.1,29.6,0l106.3-106.3l20.1-20.1l0,0l97-97.3l0.3,0l46.4-46.4l-0.5-0.5C490.9,654.4,493,652.5,495,650.5z"/>
		<path class="st1" d="M517.9,622c-6.4,10.5-14,20.1-22.8,28.6c-2,2-4.1,3.9-6.3,5.7l0.5,0.5L595,762.5l27.7,27.7l8,120.5
			c0.8,11.5,10.8,20.2,22.3,19.5l5.8-0.4c11.5-0.8,20.2-10.8,19.5-22.3l-4.4-66.2l87.8,87.8c8.1,8.1,21.4,8.1,29.6,0l4.1-4.1
			c8.1-8.1,8.1-21.4,0-29.6L689.2,789.3l-20.1-20.1l0,0l-97.3-97l0-0.3L552,652.1L521.8,622H517.9z"/>
	</g>
	<path class="st1" d="M622.4,792.8l157.9,13.3c11.5,1,21.6-7.6,22.6-19.1l0.5-5.8c1-11.5-7.6-21.6-19.1-22.6l-211.4-17.8
		L622.4,792.8z"/>
	<path class="st1" d="M322,753.7l-13.3,157.9c-1,11.5,7.6,21.6,19.1,22.6l5.8,0.5c11.5,1,21.6-7.6,22.6-19.1L374,704.2L322,753.7z"
		/>
</g>
<g id="text">
</g>
</svg>
