<svg xmlns="http://www.w3.org/2000/svg" viewBox="0 0 916.23 839.45"><defs><style>.cls-1{fill:#f94e4e;}.cls-2{fill:#345bb2;}</style></defs><title>housecom_logo</title><g id="sun"><path class="cls-1" d="M939.56,492.55H638.22a138.3,138.3,0,0,0-25.6-61.82L807.37,236a24.6,24.6,0,0,0,0-34.67l-4.8-4.8a24.6,24.6,0,0,0-34.67,0L571.08,393.34l-.79-.48a137.94,137.94,0,0,0-51.08-17.4V80.67a20.62,20.62,0,0,0-20.56-20.55H493a20.62,20.62,0,0,0-20.56,20.55V377.13a138.35,138.35,0,0,0-43.82,17.28l-205-205a24.45,24.45,0,0,0-34.46,0l-4.77,4.77a24.43,24.43,0,0,0,0,34.46L387.86,432.13a138.29,138.29,0,0,0-24.58,60.42H66.18a20.62,20.62,0,0,0-20.56,20.56v9.31h914.5v-9.31A20.62,20.62,0,0,0,939.56,492.55Z" transform="translate(-43.89 -60.12)"/></g><g id="snow_flake"><path class="cls-2" d="M780.22,591.57H45.62v9.08a20.62,20.62,0,0,0,20.56,20.56H180.85l-131,131a20.62,20.62,0,0,0,0,29.07l4,4a20.62,20.62,0,0,0,29.07,0L247,621.21H427.82l-51.7,51.7,0-.53-51.07,48.67,0,.54L209.21,729.3a20.62,20.62,0,0,0-19.15,21.87l.38,5.68A20.63,20.63,0,0,0,212.32,776l65-4.33L191,858a20.62,20.62,0,0,0,0,29.08l4,4a20.62,20.62,0,0,0,29.08,0l94.63-94.63L312,876.24a20.61,20.61,0,0,0,18.76,22.21l5.67.48a20.63,20.63,0,0,0,22.21-18.76l11.37-135,73.56-73.81.29,0,45.59-45.58,82.72,82.72-.54-.05,48.67,51.07.55,0,7.7,115.83a20.63,20.63,0,0,0,21.88,19.15l5.67-.38a20.61,20.61,0,0,0,19.15-21.88l-4.32-65,86.34,86.34a20.62,20.62,0,0,0,29.08,0l4-4a20.62,20.62,0,0,0,0-29.07l-94.63-94.64,79.76,6.72a20.62,20.62,0,0,0,22.21-18.76l.48-5.66a20.64,20.64,0,0,0-18.77-22.22L644.39,714.55,570.58,641l0-.29-19.49-19.49h193.2l-.34.3L907.83,785.37a20.64,20.64,0,0,0,29.08,0l4-4a20.64,20.64,0,0,0,0-29.08L809.86,621.21H938.15a20.62,20.62,0,0,0,20.55-20.56v-9.08Z" transform="translate(-43.89 -60.12)"/></g></svg>