<svg xmlns="http://www.w3.org/2000/svg" viewBox="0 0 923.48 268.24"><defs><style>.cls-1{fill:#f94e4e;}.cls-2{fill:#345bb2;}.cls-3{fill:#444;}</style></defs><title>housecom_logo_text</title><g id="sun"><path class="cls-1" d="M319.09,479.3H222.81a44.31,44.31,0,0,0-8.19-19.76l62.23-62.23a7.85,7.85,0,0,0,0-11.08l-1.53-1.53a7.85,7.85,0,0,0-11.08,0l-62.89,62.89-.25-.15a44.09,44.09,0,0,0-16.32-5.56v-94.2a6.59,6.59,0,0,0-6.57-6.56h-1.82a6.59,6.59,0,0,0-6.57,6.56v94.74a44,44,0,0,0-14,5.52L90.31,382.43a7.8,7.8,0,0,0-11,0L77.78,384a7.82,7.82,0,0,0,0,11l65,65A44.14,44.14,0,0,0,135,479.3H40a6.59,6.59,0,0,0-6.57,6.57v3H325.66v-3A6.58,6.58,0,0,0,319.09,479.3Z" transform="translate(-32.89 -341.12)"/></g><g id="snow_flake"><path class="cls-2" d="M268.18,510.94H33.44v2.9A6.59,6.59,0,0,0,40,520.41H76.65L34.8,562.26a6.6,6.6,0,0,0,0,9.29l1.29,1.28a6.58,6.58,0,0,0,9.29,0L97.8,520.41h57.77l-16.52,16.52v-.17l-16.31,15.55,0,.18-37,2.46a6.58,6.58,0,0,0-6.12,7l.12,1.81a6.58,6.58,0,0,0,7,6.12l20.78-1.38L79.9,596.08a6.6,6.6,0,0,0,0,9.29l1.29,1.29a6.6,6.6,0,0,0,9.29,0l30.23-30.24-2.14,25.48a6.58,6.58,0,0,0,6,7.1l1.81.15a6.58,6.58,0,0,0,7.1-6L137.11,560l23.5-23.58h.1l14.56-14.57,26.43,26.43h-.17l15.56,16.32h.17l2.46,37a6.59,6.59,0,0,0,7,6.11l1.82-.12a6.58,6.58,0,0,0,6.11-7l-1.38-20.78,27.59,27.59a6.58,6.58,0,0,0,9.29,0l1.29-1.28a6.6,6.6,0,0,0,0-9.29l-30.24-30.24,25.49,2.14a6.57,6.57,0,0,0,7.09-6l.16-1.81a6.6,6.6,0,0,0-6-7.1l-43.15-3.63-23.59-23.51v-.09L195,520.41h61.74l-.11.1L309,572.87a6.6,6.6,0,0,0,9.29,0l1.28-1.29a6.58,6.58,0,0,0,0-9.29l-41.88-41.88h41a6.59,6.59,0,0,0,6.57-6.57v-2.9Z" transform="translate(-32.89 -341.12)"/></g><g id="text"><path class="cls-3" d="M370.87,508.28v15.85h18.32V508.28h4.95v37.88h-4.95V528.4H370.87v17.76H366V508.28Z" transform="translate(-32.89 -341.12)"/><path class="cls-3" d="M446.91,526.83c0,13-7.92,19.95-17.59,19.95-10,0-17-7.76-17-19.22,0-12,7.48-19.9,17.59-19.9C440.22,507.66,446.91,515.59,446.91,526.83Zm-29.39.61c0,8.1,4.38,15.35,12.08,15.35s12.14-7.14,12.14-15.74c0-7.53-3.93-15.4-12.08-15.4S417.52,519.13,417.52,527.44Z" transform="translate(-32.89 -341.12)"/><path class="cls-3" d="M470.07,508.28V530.7c0,8.49,3.76,12.09,8.82,12.09,5.62,0,9.22-3.71,9.22-12.09V508.28h4.94v22.09c0,11.63-6.12,16.41-14.33,16.41-7.75,0-13.6-4.44-13.6-16.19V508.28Z" transform="translate(-32.89 -341.12)"/><path class="cls-3" d="M512.78,540.2a17.36,17.36,0,0,0,8.77,2.47c5,0,7.92-2.64,7.92-6.46,0-3.54-2-5.56-7.13-7.53-6.18-2.19-10-5.39-10-10.73,0-5.9,4.88-10.29,12.25-10.29a17.17,17.17,0,0,1,8.37,1.86l-1.35,4a15,15,0,0,0-7.19-1.8c-5.17,0-7.14,3.09-7.14,5.67,0,3.54,2.3,5.29,7.53,7.31,6.41,2.47,9.67,5.56,9.67,11.13,0,5.84-4.33,10.9-13.27,10.9-3.65,0-7.64-1.07-9.66-2.42Z" transform="translate(-32.89 -341.12)"/><path class="cls-3" d="M572.69,528.4H558v13.66h16.41v4.1h-21.3V508.28h20.46v4.1H558v12h14.72Z" transform="translate(-32.89 -341.12)"/><path class="cls-3" d="M619.12,544.92a24.27,24.27,0,0,1-10,1.8c-10.68,0-18.72-6.74-18.72-19.16,0-11.86,8-19.9,19.78-19.9,4.72,0,7.7,1,9,1.69l-1.18,4a17.75,17.75,0,0,0-7.64-1.58c-8.88,0-14.78,5.68-14.78,15.63,0,9.27,5.34,15.23,14.56,15.23a19.49,19.49,0,0,0,8-1.58Z" transform="translate(-32.89 -341.12)"/><path class="cls-3" d="M669.53,526.83c0,13-7.92,19.95-17.59,19.95-10,0-17-7.76-17-19.22,0-12,7.48-19.9,17.59-19.9C662.84,507.66,669.53,515.59,669.53,526.83Zm-29.39.61c0,8.1,4.38,15.35,12.08,15.35s12.14-7.14,12.14-15.74c0-7.53-3.93-15.4-12.08-15.4S640.14,519.13,640.14,527.44Z" transform="translate(-32.89 -341.12)"/><path class="cls-3" d="M719.72,529.52c-.28-5.28-.62-11.63-.56-16.35H719c-1.29,4.44-2.86,9.16-4.78,14.39l-6.68,18.37h-3.71l-6.13-18c-1.8-5.34-3.31-10.22-4.38-14.72h-.11c-.12,4.72-.4,11.07-.73,16.75l-1,16.24h-4.66l2.64-37.88h6.24l6.46,18.32c1.58,4.67,2.87,8.82,3.82,12.76h.17c1-3.82,2.31-8,4-12.76l6.75-18.32h6.23l2.36,37.88h-4.77Z" transform="translate(-32.89 -341.12)"/><path d="M375.72,448.66H364v-4.23h28.51v4.23H380.74v34.28h-5Z" transform="translate(-32.89 -341.12)"/><path d="M413.88,444.43v16.11h18.63V444.43h5v38.51h-5V464.88H413.88v18.06h-5V444.43Z" transform="translate(-32.89 -341.12)"/><path d="M478.21,464.88h-15v13.89h16.68v4.17H458.28V444.43h20.79v4.17H463.25v12.17h15Z" transform="translate(-32.89 -341.12)"/><path d="M498.5,445a51.21,51.21,0,0,1,9.54-.8c5.31,0,8.74,1,11.14,3.14a9.59,9.59,0,0,1,3,7.31,10.11,10.11,0,0,1-7.26,9.83v.17c3,1,4.74,3.77,5.66,7.77,1.25,5.37,2.17,9.08,3,10.57h-5.14c-.63-1.09-1.49-4.4-2.58-9.2-1.14-5.31-3.19-7.31-7.71-7.48h-4.68v16.68h-5Zm5,17.54h5.08c5.32,0,8.69-2.92,8.69-7.32,0-5-3.6-7.14-8.86-7.2a20.29,20.29,0,0,0-4.91.46Z" transform="translate(-32.89 -341.12)"/><path d="M573.8,466c-.29-5.37-.63-11.83-.57-16.63h-.18c-1.31,4.52-2.91,9.31-4.85,14.63l-6.8,18.68h-3.77l-6.23-18.34c-1.83-5.43-3.37-10.4-4.45-15h-.12c-.11,4.8-.4,11.26-.74,17l-1,16.51h-4.74L543,444.43h6.35l6.57,18.63c1.6,4.74,2.91,9,3.88,13H560c1-3.89,2.34-8.12,4.06-13l6.85-18.63h6.34l2.4,38.51h-4.85Z" transform="translate(-32.89 -341.12)"/><path d="M632.3,463.29c0,13.25-8,20.28-17.88,20.28-10.17,0-17.31-7.89-17.31-19.54,0-12.23,7.6-20.23,17.88-20.23C625.5,443.8,632.3,451.86,632.3,463.29Zm-29.88.62c0,8.23,4.46,15.6,12.29,15.6s12.34-7.26,12.34-16c0-7.65-4-15.65-12.29-15.65S602.42,455.46,602.42,463.91Z" transform="translate(-32.89 -341.12)"/><path d="M650.19,476.88a17.62,17.62,0,0,0,8.91,2.52c5.09,0,8.06-2.69,8.06-6.57,0-3.6-2.06-5.66-7.26-7.66-6.28-2.23-10.17-5.48-10.17-10.91,0-6,5-10.46,12.46-10.46a17.52,17.52,0,0,1,8.51,1.89l-1.37,4.06a15.31,15.31,0,0,0-7.32-1.83c-5.25,0-7.25,3.14-7.25,5.77,0,3.6,2.34,5.37,7.65,7.42,6.52,2.52,9.83,5.66,9.83,11.32,0,5.94-4.4,11.08-13.48,11.08-3.71,0-7.77-1.09-9.83-2.46Z" transform="translate(-32.89 -341.12)"/><path d="M711.09,464.88h-15v13.89H712.8v4.17H691.15V444.43H712v4.17H696.12v12.17h15Z" transform="translate(-32.89 -341.12)"/><path d="M758.28,481.68a24.67,24.67,0,0,1-10.16,1.83c-10.86,0-19-6.86-19-19.48,0-12.06,8.17-20.23,20.11-20.23,4.8,0,7.83,1,9.14,1.72l-1.2,4.05a18.15,18.15,0,0,0-7.77-1.6c-9,0-15,5.77-15,15.89,0,9.42,5.42,15.48,14.79,15.48a20,20,0,0,0,8.12-1.6Z" transform="translate(-32.89 -341.12)"/><path d="M781.6,444.43v22.8c0,8.62,3.82,12.28,9,12.28,5.71,0,9.36-3.77,9.36-12.28v-22.8h5v22.45c0,11.83-6.23,16.69-14.57,16.69-7.88,0-13.82-4.52-13.82-16.46V444.43Z" transform="translate(-32.89 -341.12)"/><path d="M825.7,445a51.37,51.37,0,0,1,9.54-.8c5.32,0,8.74,1,11.14,3.14a9.55,9.55,0,0,1,3,7.31,10.11,10.11,0,0,1-7.25,9.83v.17c3,1,4.74,3.77,5.65,7.77,1.26,5.37,2.17,9.08,3,10.57h-5.14c-.63-1.09-1.48-4.4-2.57-9.2-1.14-5.31-3.2-7.31-7.71-7.48h-4.69v16.68h-5Zm5,17.54h5.09c5.31,0,8.68-2.92,8.68-7.32,0-5-3.6-7.14-8.85-7.2a20.39,20.39,0,0,0-4.92.46Z" transform="translate(-32.89 -341.12)"/><path d="M873.52,444.43v38.51h-5V444.43Z" transform="translate(-32.89 -341.12)"/><path d="M899.29,448.66H887.58v-4.23h28.51v4.23H904.32v34.28h-5Z" transform="translate(-32.89 -341.12)"/><path d="M938.43,482.94V466.6l-12.17-22.17h5.66l5.42,10.63c1.49,2.91,2.63,5.25,3.83,7.94h.12c1.08-2.51,2.4-5,3.88-7.94l5.54-10.63h5.66l-12.91,22.11v16.4Z" transform="translate(-32.89 -341.12)"/></g></svg>