<?xml version="1.0" encoding="utf-8"?>
<!-- Generator: Adobe Illustrator 22.0.0, SVG Export Plug-In . SVG Version: 6.00 Build 0)  -->
<svg version="1.1" xmlns="http://www.w3.org/2000/svg" xmlns:xlink="http://www.w3.org/1999/xlink" x="0px" y="0px"
	 viewBox="0 0 1000.1 997.1" style="enable-background:new 0 0 1000.1 997.1;" xml:space="preserve">
<style type="text/css">
	.st0{fill:#F94E4E;}
	.st1{fill:#345BB2;}
	.st2{fill:#595959;}
	.st3{fill:#4D4D4D;}
</style>
<g id="sun">
	<g>
		<path class="st0" d="M159.8,447.9C159.8,447.9,159.8,447.9,159.8,447.9l-65.5-65.5c-3-3-8-3-11,0l-1.5,1.5c-3,3-3,8,0,11l65,65
			c0.5-0.8,1.1-1.5,1.7-2.2C151.7,453.9,155.5,450.6,159.8,447.9z"/>
		<path class="st0" d="M188.8,441.9v-94.2c0-3.6-3-6.6-6.6-6.6h-1.8c-3.6,0-6.6,3-6.6,6.6v94.7c2.9-0.6,6-0.9,9.1-0.9
			C184.9,441.5,186.8,441.6,188.8,441.9z"/>
		<path class="st0" d="M216.6,457c0.7,0.8,1.4,1.6,2,2.5l62.2-62.2c3-3,3-8,0-11.1l-1.5-1.5c-3-3-8-3-11.1,0l-62.9,62.9
			C209.6,450.1,213.4,453.3,216.6,457z"/>
		<path class="st0" d="M138.9,479.3H44c-3.6,0-6.6,3-6.6,6.6v3h101.1c-0.1-1-0.1-1.9-0.1-2.9C138.5,483.7,138.6,481.5,138.9,479.3z"
			/>
		<path class="st0" d="M323.1,479.3h-96.3c0.3,2.2,0.5,4.4,0.5,6.6c0,1,0,2-0.1,2.9h102.5v-3C329.7,482.3,326.7,479.3,323.1,479.3z"
			/>
		<g>
			<path class="st0" d="M226.8,479.3c-1.1-7.3-4-14.1-8.2-19.8c-0.6-0.9-1.3-1.7-2-2.5c-3.2-3.7-7-6.9-11.3-9.5
				c-0.1,0-0.2-0.1-0.3-0.2c-4.9-2.8-10.4-4.8-16.3-5.6c-1.9-0.3-3.9-0.4-5.9-0.4c-3.1,0-6.1,0.3-9.1,0.9c-5,1-9.7,2.9-14,5.5
				c0,0,0,0,0,0c-4.3,2.6-8.1,6-11.3,9.8c-0.6,0.7-1.2,1.5-1.7,2.2c-4,5.6-6.8,12.2-7.9,19.3c-0.3,2.2-0.5,4.4-0.5,6.6
				c0,1,0,2,0.1,2.9h15.8h55.3h17.6c0.1-1,0.1-1.9,0.1-2.9C227.3,483.7,227.1,481.5,226.8,479.3z"/>
		</g>
	</g>
</g>
<g id="snow_x5F_flake">
	<g>
		<path class="st1" d="M269,510.9h-22.2c-0.1,0.9-0.1,1.9-0.1,2.9c0,2.2,0.2,4.5,0.5,6.6h13.5C263.9,517.7,266.7,514.5,269,510.9z"
			/>
		<path class="st1" d="M281.7,520.4h41c3.6,0,6.6-3,6.6-6.6v-2.9h-57L281.7,520.4z"/>
		<path class="st1" d="M37.4,510.9v2.9c0,3.6,3,6.6,6.6,6.6h36.6l9.5-9.5H37.4z"/>
		<path class="st1" d="M126.7,513.8v-2.9H92.1c3.1,3.4,6.6,6.3,10.6,8.6l-0.9,0.9h31.5C129.7,520.4,126.7,517.5,126.7,513.8z"/>
		<path class="st1" d="M181.1,519.9c2.8-2.7,5.2-5.7,7.2-9h-18.1C173.3,514.5,177,517.5,181.1,519.9z"/>
		<path class="st1" d="M126.7,510.9v2.9c0,3.6,3,6.6,6.6,6.6h24.6h1.7l9.5-9.5H126.7z"/>
		<path class="st1" d="M246.8,510.9h-57.3l9.5,9.5h13h35.3c-0.3-2.2-0.5-4.4-0.5-6.6C246.7,512.8,246.7,511.9,246.8,510.9z"/>
		<path class="st1" d="M269,510.9c-2.3,3.5-5.1,6.7-8.3,9.5c0,0-0.1,0.1-0.1,0.1l52.4,52.4c2.6,2.6,6.7,2.6,9.3,0l1.3-1.3
			c2.6-2.6,2.6-6.7,0-9.3l-41.9-41.9l-9.5-9.5H269z"/>
		<path class="st1" d="M92.1,510.9h-2l-9.5,9.5l-41.8,41.8c-2.6,2.6-2.6,6.7,0,9.3l1.3,1.3c2.6,2.6,6.7,2.6,9.3,0l52.4-52.4l0.9-0.9
			C98.7,517.2,95.2,514.3,92.1,510.9z"/>
		<path class="st1" d="M181.1,519.9c-4.1-2.4-7.8-5.4-10.9-9H169l-9.5,9.5l-23.3,23.3l-8.7,8.7l-37.8,2.5c-3.6,0.2-6.4,3.4-6.1,7
			l0.1,1.8c0.2,3.6,3.4,6.4,7,6.1l20.8-1.4l-27.6,27.6c-2.6,2.6-2.6,6.7,0,9.3l1.3,1.3c2.6,2.6,6.7,2.6,9.3,0l33.4-33.4l6.3-6.3l0,0
			l30.5-30.6l0.1,0l14.6-14.6l-0.1-0.1C179.8,521.1,180.5,520.5,181.1,519.9z"/>
		<path class="st1" d="M188.3,510.9c-2,3.3-4.4,6.3-7.2,9c-0.6,0.6-1.3,1.2-2,1.8l0.1,0.1l33.2,33.2l8.7,8.7l2.5,37.8
			c0.2,3.6,3.4,6.4,7,6.1l1.8-0.1c3.6-0.2,6.4-3.4,6.1-7l-1.4-20.8l27.6,27.6c2.6,2.6,6.7,2.6,9.3,0l1.3-1.3c2.6-2.6,2.6-6.7,0-9.3
			l-33.4-33.4l-6.3-6.3l0,0l-30.6-30.5l0-0.1l-6.2-6.2l-9.5-9.5H188.3z"/>
	</g>
	<path class="st1" d="M221.1,564.6l49.6,4.2c3.6,0.3,6.8-2.4,7.1-6l0.2-1.8c0.3-3.6-2.4-6.8-6-7.1l-66.4-5.6L221.1,564.6z"/>
	<path class="st1" d="M126.7,552.3l-4.2,49.6c-0.3,3.6,2.4,6.8,6,7.1l1.8,0.2c3.6,0.3,6.8-2.4,7.1-6l5.6-66.4L126.7,552.3z"/>
</g>
<g id="text">
	<g>
		<path class="st2" d="M378.7,538.2c0,0.8-0.1,1.5-0.3,2.2c-0.2,0.7-0.5,1.3-0.8,1.8c-0.4,0.5-0.8,1-1.3,1.4c-0.5,0.4-1.1,0.7-1.7,1
			s-1.3,0.5-2.1,0.6c-0.7,0.1-1.6,0.2-2.5,0.2h-6.6c-0.3,0-0.6-0.1-0.8-0.3c-0.3-0.2-0.4-0.6-0.4-1.1v-22.5c0-0.5,0.1-0.9,0.4-1.1
			c0.3-0.2,0.5-0.3,0.8-0.3h5.7c1.5,0,2.7,0.1,3.7,0.4c1,0.3,1.8,0.7,2.4,1.3s1.1,1.2,1.5,2c0.3,0.8,0.5,1.7,0.5,2.7
			c0,0.6-0.1,1.2-0.2,1.7c-0.1,0.5-0.4,1.1-0.6,1.5c-0.3,0.5-0.6,0.9-1.1,1.2c-0.4,0.4-0.9,0.7-1.5,0.9c0.7,0.1,1.3,0.4,1.9,0.7
			c0.6,0.3,1.1,0.8,1.6,1.3s0.8,1.2,1.1,1.9C378.6,536.6,378.7,537.3,378.7,538.2z M373.7,526.9c0-0.6-0.1-1.2-0.3-1.7
			s-0.4-0.9-0.8-1.3s-0.8-0.6-1.4-0.8c-0.6-0.2-1.4-0.3-2.3-0.3h-3.5v8.2h3.8c0.9,0,1.6-0.1,2.1-0.3s1-0.5,1.3-0.9
			c0.4-0.4,0.6-0.8,0.8-1.3C373.6,528,373.7,527.4,373.7,526.9z M375.2,538.4c0-0.8-0.1-1.4-0.4-2c-0.2-0.6-0.6-1.1-1.1-1.4
			s-1-0.7-1.7-0.9c-0.7-0.2-1.6-0.3-2.6-0.3h-4v8.9h4.9c0.8,0,1.4-0.1,2-0.3c0.6-0.2,1.1-0.5,1.5-0.8c0.4-0.4,0.8-0.8,1-1.3
			C375.1,539.7,375.2,539.1,375.2,538.4z"/>
		<path class="st2" d="M391.1,545.4l-2.3,6.5c-0.1,0.2-0.3,0.4-0.6,0.5c-0.3,0.1-0.8,0.2-1.5,0.2c-0.3,0-0.6,0-0.8,0
			c-0.2,0-0.4-0.1-0.5-0.2c-0.1-0.1-0.2-0.2-0.2-0.3c0-0.1,0-0.3,0.1-0.5l2.4-6.1c-0.1-0.1-0.2-0.1-0.3-0.3
			c-0.1-0.1-0.2-0.2-0.2-0.4l-6.3-16.8c-0.1-0.3-0.2-0.5-0.2-0.6s0.1-0.3,0.2-0.4c0.1-0.1,0.3-0.2,0.5-0.2s0.5,0,0.9,0s0.7,0,0.9,0
			c0.2,0,0.4,0.1,0.5,0.1c0.1,0.1,0.2,0.1,0.3,0.2s0.1,0.2,0.2,0.4l5,14.1h0.1l4.8-14.2c0.1-0.2,0.2-0.4,0.3-0.5
			c0.1-0.1,0.3-0.1,0.5-0.2c0.2,0,0.5,0,1,0c0.4,0,0.7,0,0.9,0s0.4,0.1,0.5,0.2c0.1,0.1,0.2,0.2,0.2,0.4s0,0.4-0.1,0.6L391.1,545.4z
			"/>
		<path class="st2" d="M428.8,544.9c0,0.1,0,0.2-0.1,0.3c-0.1,0.1-0.1,0.1-0.3,0.2c-0.1,0-0.3,0.1-0.5,0.1s-0.5,0-0.8,0
			c-0.3,0-0.6,0-0.8,0c-0.2,0-0.4-0.1-0.5-0.1c-0.1,0-0.2-0.1-0.3-0.2c-0.1-0.1-0.1-0.2-0.1-0.3v-11.2h-11.5v11.2
			c0,0.1,0,0.2-0.1,0.3c-0.1,0.1-0.1,0.1-0.3,0.2c-0.1,0-0.3,0.1-0.5,0.1s-0.5,0-0.8,0c-0.3,0-0.6,0-0.8,0c-0.2,0-0.4-0.1-0.5-0.1
			c-0.1,0-0.2-0.1-0.3-0.2c-0.1-0.1-0.1-0.2-0.1-0.3v-24.3c0-0.1,0-0.2,0.1-0.3c0.1-0.1,0.1-0.1,0.3-0.2c0.1,0,0.3-0.1,0.5-0.1
			c0.2,0,0.5,0,0.8,0c0.3,0,0.6,0,0.8,0s0.4,0.1,0.5,0.1c0.1,0,0.2,0.1,0.3,0.2c0.1,0.1,0.1,0.2,0.1,0.3v10.1h11.5v-10.1
			c0-0.1,0-0.2,0.1-0.3c0.1-0.1,0.1-0.1,0.3-0.2c0.1,0,0.3-0.1,0.5-0.1c0.2,0,0.5,0,0.8,0c0.3,0,0.6,0,0.8,0s0.4,0.1,0.5,0.1
			c0.1,0,0.2,0.1,0.3,0.2c0.1,0.1,0.1,0.2,0.1,0.3V544.9z"/>
		<path class="st2" d="M451.5,536c0,1.4-0.2,2.8-0.6,4c-0.4,1.2-0.9,2.2-1.7,3.1c-0.7,0.9-1.7,1.6-2.8,2c-1.1,0.5-2.4,0.7-3.9,0.7
			c-1.4,0-2.7-0.2-3.8-0.6s-2-1.1-2.7-1.9c-0.7-0.8-1.3-1.8-1.6-3s-0.5-2.5-0.5-4c0-1.4,0.2-2.8,0.6-4s0.9-2.2,1.7-3.1
			c0.7-0.9,1.7-1.5,2.8-2c1.1-0.5,2.4-0.7,3.9-0.7c1.4,0,2.7,0.2,3.8,0.6s2,1.1,2.7,1.9c0.7,0.8,1.3,1.8,1.6,3
			C451.3,533.2,451.5,534.5,451.5,536z M448.1,536.2c0-1-0.1-1.8-0.3-2.7c-0.2-0.8-0.5-1.6-0.9-2.2c-0.4-0.6-1-1.1-1.7-1.5
			s-1.6-0.6-2.6-0.6c-1,0-1.8,0.2-2.5,0.5s-1.3,0.8-1.7,1.4s-0.8,1.4-1,2.2c-0.2,0.8-0.3,1.8-0.3,2.8c0,1,0.1,1.9,0.3,2.7
			c0.2,0.8,0.5,1.6,0.9,2.2c0.4,0.6,1,1.1,1.7,1.5c0.7,0.4,1.6,0.6,2.6,0.6c0.9,0,1.8-0.2,2.5-0.5c0.7-0.3,1.3-0.8,1.7-1.4
			s0.8-1.3,1-2.2C448,538.1,448.1,537.2,448.1,536.2z"/>
		<path class="st2" d="M471.3,545c0,0.1,0,0.2-0.1,0.3c0,0.1-0.1,0.1-0.2,0.2s-0.3,0.1-0.5,0.1c-0.2,0-0.4,0-0.7,0
			c-0.3,0-0.5,0-0.7,0c-0.2,0-0.3-0.1-0.4-0.1c-0.1-0.1-0.2-0.1-0.2-0.2s-0.1-0.2-0.1-0.3v-2.3c-1,1.1-2,1.9-3,2.4s-2,0.8-3,0.8
			c-1.2,0-2.2-0.2-3-0.6s-1.4-0.9-1.9-1.6c-0.5-0.7-0.8-1.5-1.1-2.3s-0.3-2-0.3-3.3v-10.7c0-0.1,0-0.2,0.1-0.3
			c0-0.1,0.1-0.1,0.3-0.2c0.1-0.1,0.3-0.1,0.5-0.1c0.2,0,0.5,0,0.8,0s0.6,0,0.8,0c0.2,0,0.4,0.1,0.5,0.1c0.1,0.1,0.2,0.1,0.3,0.2
			c0.1,0.1,0.1,0.2,0.1,0.3v10.2c0,1,0.1,1.9,0.2,2.5c0.1,0.6,0.4,1.1,0.7,1.6c0.3,0.4,0.7,0.8,1.2,1s1,0.4,1.6,0.4
			c0.8,0,1.6-0.3,2.4-0.9s1.7-1.4,2.5-2.5v-12.3c0-0.1,0-0.2,0.1-0.3c0-0.1,0.1-0.1,0.3-0.2c0.1-0.1,0.3-0.1,0.5-0.1
			c0.2,0,0.5,0,0.8,0c0.3,0,0.6,0,0.8,0c0.2,0,0.4,0.1,0.5,0.1s0.2,0.1,0.3,0.2s0.1,0.2,0.1,0.3V545z"/>
		<path class="st2" d="M488.3,540.2c0,0.9-0.2,1.7-0.5,2.4s-0.8,1.3-1.4,1.8c-0.6,0.5-1.3,0.8-2.2,1.1c-0.8,0.2-1.8,0.4-2.8,0.4
			c-0.6,0-1.2,0-1.8-0.1s-1.1-0.2-1.5-0.4s-0.8-0.3-1.1-0.5s-0.5-0.3-0.7-0.4c-0.1-0.1-0.2-0.3-0.3-0.5c-0.1-0.2-0.1-0.6-0.1-1
			c0-0.2,0-0.5,0-0.6c0-0.2,0.1-0.3,0.1-0.4s0.1-0.2,0.2-0.2c0.1,0,0.2-0.1,0.2-0.1c0.1,0,0.4,0.1,0.6,0.3c0.3,0.2,0.6,0.4,1,0.6
			s0.9,0.4,1.5,0.6c0.6,0.2,1.2,0.3,1.9,0.3c0.5,0,1-0.1,1.5-0.2c0.4-0.1,0.8-0.3,1.2-0.5c0.3-0.2,0.6-0.5,0.8-0.9s0.3-0.8,0.3-1.3
			c0-0.5-0.1-0.9-0.4-1.3s-0.6-0.6-1-0.9c-0.4-0.3-0.9-0.5-1.4-0.7c-0.5-0.2-1.1-0.4-1.6-0.6c-0.6-0.2-1.1-0.5-1.6-0.8s-1-0.6-1.4-1
			c-0.4-0.4-0.8-0.9-1-1.4s-0.4-1.2-0.4-2c0-0.7,0.1-1.4,0.4-2c0.3-0.6,0.7-1.2,1.2-1.7c0.5-0.5,1.2-0.9,2-1.1s1.7-0.4,2.8-0.4
			c0.5,0,0.9,0,1.4,0.1s0.9,0.2,1.3,0.3c0.4,0.1,0.7,0.2,1,0.4c0.3,0.1,0.5,0.3,0.6,0.4s0.2,0.2,0.3,0.3c0,0.1,0.1,0.2,0.1,0.3
			s0,0.2,0.1,0.4s0,0.3,0,0.5c0,0.2,0,0.4,0,0.6s-0.1,0.3-0.1,0.4c0,0.1-0.1,0.2-0.2,0.2c-0.1,0-0.1,0.1-0.2,0.1
			c-0.1,0-0.3-0.1-0.5-0.2c-0.2-0.1-0.5-0.3-0.9-0.5s-0.8-0.3-1.2-0.5c-0.5-0.1-1-0.2-1.6-0.2c-0.5,0-1,0.1-1.4,0.2
			c-0.4,0.1-0.8,0.3-1,0.5c-0.3,0.2-0.5,0.5-0.6,0.8s-0.2,0.7-0.2,1c0,0.5,0.1,0.9,0.4,1.3c0.3,0.3,0.6,0.6,1,0.9
			c0.4,0.3,0.9,0.5,1.4,0.7c0.5,0.2,1.1,0.4,1.6,0.6c0.6,0.2,1.1,0.5,1.6,0.7c0.5,0.3,1,0.6,1.4,1c0.4,0.4,0.8,0.9,1,1.4
			S488.3,539.4,488.3,540.2z"/>
		<path class="st2" d="M507.9,535.4c0,0.5-0.1,0.9-0.4,1.1c-0.3,0.2-0.5,0.3-0.9,0.3h-11.6c0,1,0.1,1.9,0.3,2.6c0.2,0.8,0.5,1.5,1,2
			c0.5,0.6,1.1,1,1.8,1.3s1.6,0.4,2.7,0.4c0.8,0,1.6-0.1,2.2-0.2s1.2-0.3,1.7-0.5c0.5-0.2,0.9-0.3,1.2-0.5c0.3-0.1,0.5-0.2,0.7-0.2
			c0.1,0,0.2,0,0.2,0.1c0.1,0,0.1,0.1,0.2,0.2s0.1,0.2,0.1,0.4s0,0.4,0,0.6c0,0.2,0,0.3,0,0.4c0,0.1,0,0.2,0,0.3s-0.1,0.2-0.1,0.3
			c0,0.1-0.1,0.2-0.2,0.2c-0.1,0.1-0.3,0.2-0.6,0.4s-0.8,0.3-1.4,0.5c-0.6,0.2-1.2,0.3-1.9,0.4c-0.7,0.1-1.5,0.2-2.4,0.2
			c-1.4,0-2.7-0.2-3.8-0.6c-1.1-0.4-2-1-2.7-1.8s-1.3-1.8-1.7-3c-0.4-1.2-0.6-2.6-0.6-4.2c0-1.5,0.2-2.9,0.6-4.1s1-2.2,1.7-3.1
			c0.7-0.8,1.6-1.5,2.7-1.9c1-0.4,2.2-0.7,3.5-0.7c1.4,0,2.6,0.2,3.5,0.7c1,0.4,1.8,1,2.4,1.8s1.1,1.6,1.4,2.6s0.4,2.1,0.4,3.2
			V535.4z M504.6,534.5c0-1.7-0.3-3-1.1-4c-0.8-1-2-1.4-3.5-1.4c-0.8,0-1.5,0.1-2.1,0.4c-0.6,0.3-1.1,0.7-1.5,1.2
			c-0.4,0.5-0.7,1.1-0.9,1.7c-0.2,0.7-0.3,1.3-0.4,2.1H504.6z"/>
		<path class="st2" d="M530,541.9c0,0.2,0,0.4,0,0.5s0,0.3-0.1,0.4s-0.1,0.2-0.1,0.3s-0.1,0.2-0.3,0.3s-0.4,0.3-0.8,0.6
			s-0.9,0.5-1.6,0.8s-1.3,0.5-2.1,0.6s-1.7,0.3-2.6,0.3c-1.6,0-3.1-0.3-4.4-0.8s-2.4-1.4-3.4-2.4s-1.6-2.4-2.1-4s-0.8-3.4-0.8-5.4
			c0-2.1,0.3-4,0.8-5.6s1.3-3,2.3-4.2s2.1-2,3.5-2.6s2.9-0.9,4.5-0.9c0.7,0,1.4,0.1,2.1,0.2s1.3,0.3,1.9,0.5s1.1,0.4,1.6,0.7
			s0.8,0.5,0.9,0.7s0.3,0.3,0.3,0.4s0.1,0.2,0.1,0.3s0.1,0.3,0.1,0.4s0,0.4,0,0.6c0,0.3,0,0.5,0,0.7s-0.1,0.3-0.1,0.5
			s-0.1,0.2-0.2,0.3s-0.2,0.1-0.3,0.1c-0.2,0-0.4-0.1-0.8-0.4c-0.3-0.3-0.7-0.5-1.3-0.8c-0.5-0.3-1.1-0.6-1.9-0.8s-1.6-0.4-2.7-0.4
			c-1.1,0-2.2,0.2-3.1,0.7s-1.7,1.1-2.4,2s-1.2,1.9-1.5,3.2s-0.5,2.7-0.5,4.3c0,1.6,0.2,3,0.5,4.2s0.8,2.3,1.5,3.1
			c0.6,0.8,1.4,1.5,2.4,1.9s2,0.6,3.2,0.6c1,0,1.9-0.1,2.6-0.4c0.8-0.2,1.4-0.5,1.9-0.8c0.5-0.3,1-0.6,1.3-0.8
			c0.3-0.2,0.6-0.4,0.8-0.4c0.1,0,0.2,0,0.2,0.1c0.1,0,0.1,0.1,0.2,0.2s0.1,0.3,0.1,0.5S530,541.6,530,541.9z"/>
		<path class="st2" d="M550.5,536c0,1.4-0.2,2.8-0.6,4s-0.9,2.2-1.7,3.1s-1.7,1.6-2.8,2s-2.4,0.7-3.9,0.7c-1.4,0-2.7-0.2-3.8-0.6
			s-2-1.1-2.7-1.9s-1.3-1.8-1.6-3s-0.5-2.5-0.5-4c0-1.4,0.2-2.8,0.6-4s0.9-2.2,1.7-3.1s1.7-1.5,2.8-2s2.4-0.7,3.9-0.7
			c1.4,0,2.7,0.2,3.8,0.6s2,1.1,2.7,1.9s1.3,1.8,1.6,3S550.5,534.5,550.5,536z M547.1,536.2c0-1-0.1-1.8-0.3-2.7
			c-0.2-0.8-0.5-1.6-0.9-2.2s-1-1.1-1.7-1.5s-1.6-0.6-2.6-0.6c-1,0-1.8,0.2-2.5,0.5c-0.7,0.3-1.3,0.8-1.7,1.4
			c-0.4,0.6-0.8,1.4-1,2.2s-0.3,1.8-0.3,2.8c0,1,0.1,1.9,0.3,2.7c0.2,0.8,0.5,1.6,0.9,2.2c0.4,0.6,1,1.1,1.7,1.5
			c0.7,0.4,1.6,0.6,2.6,0.6c0.9,0,1.8-0.2,2.5-0.5s1.3-0.8,1.7-1.4c0.4-0.6,0.8-1.3,1-2.2S547.1,537.2,547.1,536.2z"/>
		<path class="st2" d="M581.3,545c0,0.1,0,0.2-0.1,0.3s-0.1,0.1-0.3,0.2s-0.3,0.1-0.5,0.1s-0.5,0-0.8,0c-0.3,0-0.6,0-0.8,0
			s-0.4-0.1-0.5-0.1s-0.2-0.1-0.3-0.2s-0.1-0.2-0.1-0.3v-10.7c0-0.7-0.1-1.4-0.2-2s-0.3-1.1-0.6-1.6s-0.7-0.8-1.1-1s-1-0.4-1.6-0.4
			c-0.7,0-1.5,0.3-2.2,0.9s-1.6,1.4-2.5,2.5V545c0,0.1,0,0.2-0.1,0.3s-0.1,0.1-0.3,0.2s-0.3,0.1-0.5,0.1s-0.5,0-0.8,0
			c-0.3,0-0.6,0-0.8,0s-0.4-0.1-0.5-0.1s-0.2-0.1-0.3-0.2s-0.1-0.2-0.1-0.3v-10.7c0-0.7-0.1-1.4-0.2-2s-0.4-1.1-0.6-1.6
			s-0.6-0.8-1.1-1s-1-0.4-1.6-0.4c-0.7,0-1.5,0.3-2.2,0.9s-1.6,1.4-2.5,2.5V545c0,0.1,0,0.2-0.1,0.3s-0.1,0.1-0.3,0.2
			s-0.3,0.1-0.5,0.1s-0.5,0-0.8,0c-0.3,0-0.6,0-0.8,0s-0.4-0.1-0.5-0.1s-0.2-0.1-0.3-0.2s-0.1-0.2-0.1-0.3v-17.6
			c0-0.1,0-0.2,0.1-0.3s0.1-0.1,0.2-0.2s0.3-0.1,0.4-0.1s0.4,0,0.7,0c0.3,0,0.5,0,0.7,0s0.3,0.1,0.4,0.1s0.2,0.1,0.2,0.2
			s0.1,0.2,0.1,0.3v2.3c1-1.1,2-1.9,2.9-2.4s1.9-0.8,2.8-0.8c0.7,0,1.4,0.1,2,0.3s1.1,0.4,1.5,0.7s0.8,0.7,1.1,1.1s0.6,0.9,0.8,1.4
			c0.6-0.6,1.1-1.2,1.7-1.6s1-0.8,1.5-1.1s1-0.5,1.4-0.6s0.9-0.2,1.4-0.2c1.1,0,2.1,0.2,2.9,0.6s1.4,0.9,1.9,1.6s0.8,1.4,1,2.3
			s0.3,1.8,0.3,2.8V545z"/>
	</g>
	<g>
		<path d="M389,455.1c0,0.7-0.1,1.3-0.3,1.6c-0.2,0.4-0.5,0.5-0.8,0.5h-12.7v38.8c0,0.2,0,0.3-0.1,0.4s-0.2,0.2-0.4,0.3
			c-0.2,0.1-0.4,0.2-0.8,0.2c-0.3,0.1-0.7,0.1-1.2,0.1c-0.5,0-0.9,0-1.3-0.1c-0.3-0.1-0.6-0.1-0.8-0.2c-0.2-0.1-0.3-0.2-0.4-0.3
			s-0.1-0.3-0.1-0.4v-38.8h-12.7c-0.2,0-0.3,0-0.5-0.1c-0.1-0.1-0.3-0.2-0.4-0.4c-0.1-0.2-0.2-0.4-0.2-0.7c0-0.3-0.1-0.6-0.1-1
			c0-0.4,0-0.7,0.1-1c0-0.3,0.1-0.5,0.2-0.7c0.1-0.2,0.2-0.3,0.4-0.4c0.1-0.1,0.3-0.1,0.5-0.1h30.5c0.2,0,0.3,0,0.5,0.1
			c0.1,0.1,0.3,0.2,0.4,0.4c0.1,0.2,0.2,0.4,0.2,0.7C388.9,454.4,389,454.7,389,455.1z"/>
		<path d="M431.4,496.2c0,0.1,0,0.3-0.1,0.4s-0.2,0.2-0.4,0.3c-0.2,0.1-0.4,0.1-0.7,0.2c-0.3,0-0.6,0.1-1.1,0.1c-0.4,0-0.8,0-1-0.1
			c-0.3,0-0.5-0.1-0.7-0.2c-0.2-0.1-0.3-0.2-0.3-0.3c-0.1-0.1-0.1-0.2-0.1-0.4v-17.5h-19.4v17.5c0,0.1,0,0.3-0.1,0.4
			c-0.1,0.1-0.2,0.2-0.4,0.3c-0.2,0.1-0.4,0.1-0.7,0.2c-0.3,0-0.6,0.1-1,0.1c-0.4,0-0.8,0-1.1-0.1c-0.3,0-0.5-0.1-0.7-0.2
			c-0.2-0.1-0.3-0.2-0.4-0.3s-0.1-0.2-0.1-0.4V459c0-0.1,0-0.2,0.1-0.3s0.2-0.2,0.4-0.3c0.2-0.1,0.4-0.1,0.7-0.2
			c0.3,0,0.6-0.1,1.1-0.1c0.4,0,0.8,0,1,0.1c0.3,0,0.5,0.1,0.7,0.2c0.2,0.1,0.3,0.2,0.4,0.3c0.1,0.1,0.1,0.2,0.1,0.3v15.8H427V459
			c0-0.1,0-0.2,0.1-0.3c0.1-0.1,0.2-0.2,0.3-0.3c0.2-0.1,0.4-0.1,0.7-0.2c0.3,0,0.6-0.1,1-0.1c0.4,0,0.8,0,1.1,0.1
			c0.3,0,0.5,0.1,0.7,0.2c0.2,0.1,0.3,0.2,0.4,0.3s0.1,0.2,0.1,0.3V496.2z"/>
		<path d="M471.6,495c0,0.3,0,0.6-0.1,0.8c0,0.2-0.1,0.4-0.2,0.6c-0.1,0.2-0.2,0.3-0.3,0.3c-0.1,0.1-0.3,0.1-0.4,0.1h-18.9
			c-0.4,0-0.8-0.2-1.2-0.5c-0.4-0.3-0.6-0.8-0.6-1.6v-34.4c0-0.8,0.2-1.3,0.6-1.6c0.4-0.3,0.8-0.5,1.2-0.5h18.6c0.1,0,0.3,0,0.4,0.1
			s0.2,0.2,0.3,0.3s0.1,0.4,0.2,0.6c0,0.2,0.1,0.5,0.1,0.8c0,0.3,0,0.6-0.1,0.8s-0.1,0.4-0.2,0.6c-0.1,0.1-0.2,0.3-0.3,0.3
			s-0.3,0.1-0.4,0.1h-15.9V475h13.8c0.1,0,0.3,0,0.4,0.1c0.1,0.1,0.2,0.2,0.3,0.3s0.1,0.3,0.2,0.6c0,0.2,0.1,0.5,0.1,0.9
			c0,0.3,0,0.6-0.1,0.8c0,0.2-0.1,0.4-0.2,0.6s-0.2,0.3-0.3,0.3s-0.3,0.1-0.4,0.1h-13.8v14.5h16.2c0.1,0,0.3,0,0.4,0.1
			c0.1,0.1,0.2,0.2,0.3,0.3c0.1,0.1,0.1,0.3,0.2,0.6C471.6,494.4,471.6,494.7,471.6,495z"/>
		<path d="M514.2,496.2c0,0.1,0,0.3-0.1,0.4c-0.1,0.1-0.2,0.2-0.4,0.3c-0.2,0.1-0.4,0.1-0.7,0.2c-0.3,0-0.7,0.1-1.2,0.1
			c-0.4,0-0.8,0-1.1-0.1s-0.5-0.1-0.7-0.2c-0.2-0.1-0.3-0.2-0.4-0.4c-0.1-0.2-0.2-0.4-0.3-0.6l-3.3-9.1c-0.4-1.1-0.8-2.1-1.3-2.9
			c-0.5-0.9-1-1.7-1.7-2.3c-0.7-0.6-1.4-1.2-2.4-1.5c-0.9-0.4-2.1-0.5-3.6-0.5h-4.3v16.8c0,0.1,0,0.3-0.1,0.4
			c-0.1,0.1-0.2,0.2-0.4,0.3c-0.2,0.1-0.4,0.1-0.7,0.2c-0.3,0-0.6,0.1-1,0.1c-0.4,0-0.8,0-1.1-0.1c-0.3,0-0.5-0.1-0.7-0.2
			c-0.2-0.1-0.3-0.2-0.4-0.3s-0.1-0.2-0.1-0.4v-35.8c0-0.8,0.2-1.3,0.6-1.6c0.4-0.3,0.8-0.5,1.2-0.5h9.1c2.3,0,4.2,0.2,5.7,0.7
			c1.5,0.5,2.8,1.2,3.9,2c1,0.9,1.8,1.9,2.3,3.1c0.5,1.2,0.8,2.5,0.8,3.9c0,1.2-0.2,2.4-0.5,3.4c-0.4,1-0.9,2-1.5,2.8
			c-0.7,0.8-1.4,1.5-2.4,2.1c-0.9,0.6-1.9,1.1-3.1,1.4c0.7,0.3,1.3,0.7,1.9,1.1s1.1,0.9,1.5,1.6c0.5,0.6,0.9,1.3,1.3,2.1
			c0.4,0.8,0.8,1.7,1.2,2.7l3.3,8.9c0.2,0.6,0.4,1.1,0.5,1.3C514.2,495.8,514.2,496,514.2,496.2z M507.2,468.7c0-1-0.1-1.8-0.4-2.6
			s-0.8-1.5-1.4-2.1c-0.6-0.6-1.5-1-2.5-1.4c-1-0.3-2.4-0.5-4.1-0.5h-6.1v13.7h5.9c1.7,0,3-0.2,4.1-0.5c1-0.4,1.9-0.8,2.6-1.5
			c0.7-0.6,1.2-1.4,1.5-2.2C507.1,470.7,507.2,469.7,507.2,468.7z"/>
		<path d="M572,496.2c0,0.1,0,0.3-0.1,0.4s-0.2,0.2-0.4,0.3s-0.4,0.1-0.7,0.2c-0.3,0-0.6,0.1-1,0.1c-0.4,0-0.8,0-1-0.1
			c-0.3,0-0.5-0.1-0.7-0.2c-0.2-0.1-0.3-0.2-0.3-0.3c-0.1-0.1-0.1-0.2-0.1-0.4v-33.9h-0.1l-15.1,34.1c-0.1,0.2-0.3,0.4-0.6,0.5
			c-0.3,0.1-0.8,0.2-1.4,0.2c-0.3,0-0.6,0-0.9-0.1c-0.2,0-0.4-0.1-0.6-0.1c-0.1-0.1-0.3-0.1-0.3-0.2c-0.1-0.1-0.2-0.2-0.2-0.3
			l-14.4-34.1h-0.1v33.9c0,0.1,0,0.3-0.1,0.4s-0.2,0.2-0.3,0.3c-0.2,0.1-0.4,0.1-0.7,0.2c-0.3,0-0.6,0.1-1.1,0.1c-0.4,0-0.8,0-1-0.1
			c-0.3,0-0.5-0.1-0.7-0.2s-0.3-0.2-0.3-0.3s-0.1-0.2-0.1-0.4v-35.8c0-0.8,0.2-1.3,0.6-1.6c0.4-0.3,0.8-0.5,1.2-0.5h2.6
			c0.6,0,1,0.1,1.4,0.2c0.4,0.1,0.8,0.3,1.1,0.6c0.3,0.3,0.6,0.6,0.8,1c0.2,0.4,0.4,0.8,0.6,1.3l12.5,29.1h0.1l12.9-28.9
			c0.2-0.6,0.5-1.1,0.8-1.5c0.3-0.4,0.6-0.7,0.9-1c0.3-0.3,0.7-0.4,1.1-0.5s0.9-0.2,1.4-0.2h2.3c0.4,0,0.9,0.2,1.2,0.5
			c0.4,0.3,0.6,0.8,0.6,1.6V496.2z"/>
		<path d="M622.9,477.1c0,3.1-0.4,5.9-1.1,8.4c-0.8,2.5-1.9,4.6-3.3,6.4c-1.5,1.8-3.3,3.1-5.5,4.1c-2.2,1-4.7,1.4-7.6,1.4
			c-2.9,0-5.4-0.4-7.6-1.3c-2.1-0.9-3.9-2.1-5.3-3.8c-1.4-1.7-2.5-3.7-3.1-6.1c-0.7-2.4-1-5.2-1-8.3c0-3,0.4-5.8,1.1-8.3
			c0.8-2.5,1.9-4.6,3.4-6.3c1.5-1.8,3.3-3.1,5.5-4.1c2.2-1,4.7-1.4,7.6-1.4c2.8,0,5.2,0.4,7.3,1.3c2.1,0.9,3.9,2.1,5.3,3.8
			c1.4,1.6,2.5,3.7,3.3,6.1C622.5,471.3,622.9,474.1,622.9,477.1z M618.2,477.5c0-2.2-0.2-4.3-0.7-6.3s-1.2-3.6-2.1-5
			s-2.3-2.5-3.9-3.4c-1.6-0.8-3.6-1.2-5.9-1.2c-2.3,0-4.3,0.4-5.9,1.3s-2.9,2-3.9,3.5c-1,1.5-1.7,3.2-2.2,5.1
			c-0.5,1.9-0.7,4-0.7,6.1c0,2.3,0.2,4.5,0.6,6.4c0.4,2,1.1,3.6,2.1,5.1s2.3,2.6,3.9,3.4s3.6,1.2,5.9,1.2c2.3,0,4.3-0.4,5.9-1.3
			s2.9-2.1,3.9-3.5c1-1.5,1.7-3.2,2.2-5.2C618,481.7,618.2,479.6,618.2,477.5z"/>
		<path d="M663.6,485c0,2-0.4,3.7-1.2,5.3c-0.8,1.5-1.9,2.8-3.2,3.9c-1.4,1.1-3,1.9-4.9,2.4c-1.9,0.6-3.9,0.9-6.1,0.9
			c-1.4,0-2.7-0.1-4-0.4c-1.3-0.3-2.4-0.6-3.5-1c-1-0.4-1.9-0.8-2.6-1.1c-0.7-0.4-1.2-0.7-1.4-0.9c-0.2-0.2-0.3-0.4-0.4-0.5
			c-0.1-0.1-0.2-0.3-0.2-0.5s-0.1-0.4-0.1-0.6c0-0.2,0-0.5,0-0.9c0-0.4,0-0.7,0-1.1c0-0.3,0.1-0.6,0.2-0.8c0.1-0.2,0.2-0.4,0.3-0.5
			c0.1-0.1,0.3-0.2,0.5-0.2c0.3,0,0.7,0.2,1.3,0.6c0.6,0.4,1.4,0.9,2.4,1.4c1,0.5,2.1,1,3.5,1.4c1.3,0.4,2.8,0.6,4.5,0.6
			c1.4,0,2.7-0.2,3.9-0.5c1.2-0.3,2.2-0.8,3.1-1.5s1.5-1.4,2-2.4c0.5-0.9,0.7-2,0.7-3.2c0-1.3-0.3-2.4-0.9-3.3
			c-0.6-0.9-1.4-1.8-2.4-2.5c-1-0.7-2.2-1.3-3.5-1.9c-1.3-0.6-2.6-1.1-3.9-1.7c-1.3-0.6-2.7-1.2-3.9-1.9c-1.3-0.7-2.5-1.5-3.5-2.5
			c-1-0.9-1.8-2.1-2.4-3.4s-0.9-2.9-0.9-4.7c0-1.6,0.3-3.2,1-4.5s1.6-2.6,2.8-3.6c1.2-1,2.6-1.8,4.2-2.3c1.6-0.6,3.3-0.8,5.2-0.8
			c1.1,0,2.2,0.1,3.3,0.3c1.1,0.2,2.1,0.5,3,0.8c0.9,0.3,1.7,0.7,2.4,1c0.7,0.3,1.1,0.6,1.3,0.8c0.2,0.2,0.3,0.4,0.4,0.5
			c0.1,0.1,0.2,0.3,0.2,0.5c0.1,0.2,0.1,0.4,0.1,0.7c0,0.3,0,0.5,0,0.9c0,0.4,0,0.7,0,1c0,0.3-0.1,0.6-0.2,0.8
			c-0.1,0.2-0.2,0.4-0.3,0.5c-0.1,0.1-0.3,0.2-0.4,0.2c-0.3,0-0.7-0.2-1.2-0.6c-0.6-0.4-1.3-0.8-2.1-1.2c-0.8-0.4-1.9-0.8-3-1.2
			c-1.2-0.4-2.5-0.6-3.9-0.6c-1.2,0-2.3,0.2-3.3,0.5c-1,0.3-1.8,0.8-2.5,1.4c-0.7,0.6-1.2,1.3-1.6,2.1c-0.4,0.8-0.6,1.6-0.6,2.6
			c0,1.3,0.3,2.5,0.9,3.4c0.6,1,1.4,1.8,2.5,2.5s2.2,1.4,3.5,1.9c1.3,0.6,2.6,1.2,4,1.7c1.3,0.6,2.7,1.2,4,1.9
			c1.3,0.7,2.5,1.5,3.5,2.4c1,0.9,1.8,2,2.5,3.3C663.3,481.8,663.6,483.3,663.6,485z"/>
		<path d="M702,495c0,0.3,0,0.6-0.1,0.8c0,0.2-0.1,0.4-0.2,0.6c-0.1,0.2-0.2,0.3-0.3,0.3s-0.3,0.1-0.4,0.1h-18.9
			c-0.4,0-0.8-0.2-1.2-0.5c-0.4-0.3-0.6-0.8-0.6-1.6v-34.4c0-0.8,0.2-1.3,0.6-1.6c0.4-0.3,0.8-0.5,1.2-0.5h18.6c0.1,0,0.3,0,0.4,0.1
			s0.2,0.2,0.3,0.3c0.1,0.2,0.1,0.4,0.2,0.6c0,0.2,0.1,0.5,0.1,0.8c0,0.3,0,0.6-0.1,0.8c0,0.2-0.1,0.4-0.2,0.6
			c-0.1,0.1-0.2,0.3-0.3,0.3s-0.3,0.1-0.4,0.1h-15.9V475h13.8c0.1,0,0.3,0,0.4,0.1c0.1,0.1,0.2,0.2,0.3,0.3c0.1,0.1,0.1,0.3,0.2,0.6
			c0,0.2,0.1,0.5,0.1,0.9c0,0.3,0,0.6-0.1,0.8c0,0.2-0.1,0.4-0.2,0.6c-0.1,0.2-0.2,0.3-0.3,0.3s-0.3,0.1-0.4,0.1h-13.8v14.5H701
			c0.1,0,0.3,0,0.4,0.1s0.2,0.2,0.3,0.3c0.1,0.1,0.1,0.3,0.2,0.6C702,494.4,702,494.7,702,495z"/>
		<path d="M744.2,491.6c0,0.5,0,0.9-0.1,1.2c-0.1,0.3-0.3,0.6-0.6,0.9c-0.3,0.3-0.8,0.7-1.4,1.1c-0.6,0.4-1.4,0.8-2.3,1.2
			c-0.9,0.4-1.9,0.7-3.1,0.9c-1.2,0.3-2.4,0.4-3.8,0.4c-2.5,0-4.8-0.4-6.9-1.3c-2.1-0.9-3.9-2.2-5.4-3.8c-1.5-1.7-2.7-3.7-3.5-6.2
			c-0.8-2.4-1.3-5.2-1.3-8.3c0-3.1,0.4-5.8,1.2-8.3c0.8-2.5,2-4.5,3.5-6.3c1.5-1.7,3.3-3,5.4-4s4.4-1.4,7-1.4c1.2,0,2.3,0.1,3.4,0.3
			c1.1,0.2,2.1,0.5,3,0.9c0.9,0.4,1.8,0.8,2.5,1.2c0.7,0.4,1.3,0.8,1.6,1.1c0.3,0.3,0.5,0.6,0.6,0.9c0.1,0.3,0.1,0.8,0.1,1.4
			c0,0.3,0,0.6-0.1,0.8c0,0.2-0.1,0.4-0.2,0.6c-0.1,0.2-0.2,0.3-0.3,0.3c-0.1,0.1-0.2,0.1-0.4,0.1c-0.3,0-0.6-0.2-1.1-0.6
			c-0.5-0.4-1.1-0.8-1.9-1.3c-0.8-0.5-1.8-0.9-3-1.3s-2.6-0.6-4.3-0.6c-1.8,0-3.5,0.4-5,1.1c-1.5,0.7-2.8,1.7-3.9,3.1
			c-1.1,1.4-1.9,3-2.5,5s-0.9,4.2-0.9,6.7c0,2.5,0.3,4.7,0.9,6.7c0.6,2,1.5,3.6,2.6,4.9c1.1,1.3,2.5,2.4,4.1,3.1
			c1.6,0.7,3.3,1,5.3,1c1.6,0,2.9-0.2,4.1-0.6s2.1-0.8,2.9-1.3c0.8-0.5,1.4-0.9,1.9-1.3c0.5-0.4,0.9-0.6,1.2-0.6
			c0.1,0,0.2,0,0.3,0.1c0.1,0.1,0.2,0.2,0.2,0.4c0.1,0.2,0.1,0.4,0.1,0.6C744.2,490.9,744.2,491.2,744.2,491.6z"/>
		<path d="M788.4,482c0,2.8-0.4,5.2-1.1,7c-0.7,1.8-1.7,3.4-3,4.6c-1.3,1.3-2.8,2.2-4.6,2.9c-1.8,0.7-3.8,1-6,1
			c-2.1,0-4-0.3-5.8-0.9c-1.8-0.6-3.3-1.5-4.6-2.7c-1.3-1.2-2.3-2.7-3-4.5c-0.7-1.8-1-4.2-1-7.3V459c0-0.1,0-0.2,0.1-0.3
			s0.2-0.2,0.4-0.3c0.2-0.1,0.4-0.1,0.7-0.2c0.3,0,0.6-0.1,1-0.1c0.5,0,0.8,0,1.1,0.1c0.3,0,0.5,0.1,0.7,0.2
			c0.2,0.1,0.3,0.2,0.3,0.3s0.1,0.2,0.1,0.3v22.6c0,2.5,0.2,4.5,0.7,5.8s1.2,2.5,2.1,3.4c0.9,0.9,2,1.6,3.3,2.1
			c1.3,0.5,2.7,0.7,4.2,0.7c1.5,0,2.9-0.2,4.2-0.7c1.3-0.5,2.4-1.1,3.3-2c0.9-0.9,1.6-2,2-3.4s0.7-3.2,0.7-5.5v-23
			c0-0.1,0-0.2,0.1-0.3c0.1-0.1,0.2-0.2,0.3-0.3s0.4-0.1,0.7-0.2c0.3,0,0.6-0.1,1-0.1c0.6,0,1,0,1.2,0.1c0.3,0,0.5,0.1,0.6,0.2
			c0.2,0.1,0.3,0.2,0.3,0.3s0.1,0.2,0.1,0.3V482z"/>
		<path d="M832.9,496.2c0,0.1,0,0.3-0.1,0.4s-0.2,0.2-0.4,0.3c-0.2,0.1-0.4,0.1-0.7,0.2c-0.3,0-0.7,0.1-1.2,0.1
			c-0.4,0-0.8,0-1.1-0.1s-0.5-0.1-0.7-0.2c-0.2-0.1-0.3-0.2-0.4-0.4c-0.1-0.2-0.2-0.4-0.3-0.6l-3.3-9.1c-0.4-1.1-0.8-2.1-1.3-2.9
			c-0.5-0.9-1-1.7-1.7-2.3c-0.7-0.6-1.4-1.2-2.4-1.5c-0.9-0.4-2.1-0.5-3.6-0.5h-4.3v16.8c0,0.1,0,0.3-0.1,0.4s-0.2,0.2-0.4,0.3
			c-0.2,0.1-0.4,0.1-0.7,0.2c-0.3,0-0.6,0.1-1,0.1c-0.4,0-0.8,0-1.1-0.1c-0.3,0-0.5-0.1-0.7-0.2c-0.2-0.1-0.3-0.2-0.4-0.3
			s-0.1-0.2-0.1-0.4v-35.8c0-0.8,0.2-1.3,0.6-1.6c0.4-0.3,0.8-0.5,1.2-0.5h9.1c2.3,0,4.2,0.2,5.7,0.7c1.5,0.5,2.8,1.2,3.9,2
			c1,0.9,1.8,1.9,2.3,3.1c0.5,1.2,0.8,2.5,0.8,3.9c0,1.2-0.2,2.4-0.5,3.4s-0.9,2-1.5,2.8c-0.7,0.8-1.4,1.5-2.4,2.1
			c-0.9,0.6-1.9,1.1-3.1,1.4c0.7,0.3,1.3,0.7,1.9,1.1c0.6,0.4,1.1,0.9,1.5,1.6c0.5,0.6,0.9,1.3,1.3,2.1c0.4,0.8,0.8,1.7,1.2,2.7
			l3.3,8.9c0.2,0.6,0.4,1.1,0.5,1.3C832.9,495.8,832.9,496,832.9,496.2z M825.9,468.7c0-1-0.1-1.8-0.4-2.6c-0.3-0.8-0.8-1.5-1.4-2.1
			c-0.6-0.6-1.5-1-2.5-1.4c-1-0.3-2.4-0.5-4.1-0.5h-6.1v13.7h5.9c1.7,0,3-0.2,4.1-0.5c1-0.4,1.9-0.8,2.6-1.5
			c0.7-0.6,1.2-1.4,1.5-2.2C825.8,470.7,825.9,469.7,825.9,468.7z"/>
		<path d="M852.9,496.2c0,0.1,0,0.3-0.1,0.4s-0.2,0.2-0.4,0.3c-0.2,0.1-0.4,0.1-0.7,0.2c-0.3,0-0.6,0.1-1,0.1c-0.4,0-0.8,0-1.1-0.1
			c-0.3,0-0.5-0.1-0.7-0.2c-0.2-0.1-0.3-0.2-0.4-0.3s-0.1-0.2-0.1-0.4V459c0-0.1,0-0.2,0.1-0.3c0.1-0.1,0.2-0.2,0.4-0.3
			s0.4-0.1,0.7-0.2c0.3,0,0.6-0.1,1-0.1c0.4,0,0.8,0,1,0.1c0.3,0,0.5,0.1,0.7,0.2c0.2,0.1,0.3,0.2,0.4,0.3s0.1,0.2,0.1,0.3V496.2z"
			/>
		<path d="M894.8,460.3c0,0.6-0.1,1.1-0.2,1.4c-0.2,0.3-0.4,0.5-0.7,0.5h-11.2v34c0,0.1,0,0.3-0.1,0.4s-0.2,0.2-0.3,0.3
			c-0.2,0.1-0.4,0.1-0.7,0.2c-0.3,0-0.6,0.1-1.1,0.1c-0.5,0-0.8,0-1.1-0.1c-0.3,0-0.5-0.1-0.7-0.2c-0.2-0.1-0.3-0.2-0.4-0.3
			s-0.1-0.2-0.1-0.4v-34h-11.2c-0.1,0-0.3,0-0.4-0.1s-0.2-0.2-0.3-0.3c-0.1-0.2-0.1-0.4-0.2-0.6c0-0.2-0.1-0.5-0.1-0.8
			c0-0.3,0-0.6,0.1-0.8c0-0.2,0.1-0.4,0.2-0.6c0.1-0.2,0.2-0.3,0.3-0.3s0.3-0.1,0.4-0.1h26.8c0.1,0,0.3,0,0.4,0.1s0.2,0.2,0.3,0.3
			c0.1,0.2,0.1,0.4,0.2,0.6C894.8,459.7,894.8,460,894.8,460.3z"/>
		<path d="M919.6,481.8v14.4c0,0.1,0,0.3-0.1,0.4s-0.2,0.2-0.4,0.3c-0.2,0.1-0.4,0.1-0.7,0.2c-0.3,0-0.6,0.1-1,0.1
			c-0.4,0-0.8,0-1.1-0.1c-0.3,0-0.5-0.1-0.7-0.2c-0.2-0.1-0.3-0.2-0.3-0.3s-0.1-0.2-0.1-0.4v-14.4l-12.5-21.9
			c-0.2-0.4-0.3-0.7-0.3-0.9c0-0.2,0-0.4,0.1-0.5s0.4-0.2,0.7-0.3c0.3,0,0.8-0.1,1.3-0.1c0.5,0,0.9,0,1.3,0.1s0.6,0.1,0.8,0.2
			s0.3,0.2,0.4,0.3c0.1,0.1,0.2,0.2,0.3,0.4l10.2,18.4h0.1l10-18.4c0.1-0.1,0.2-0.2,0.2-0.3c0.1-0.1,0.2-0.2,0.4-0.3
			c0.2-0.1,0.4-0.1,0.7-0.2c0.3,0,0.7-0.1,1.2-0.1c0.5,0,1,0,1.3,0.1c0.3,0,0.5,0.1,0.7,0.3c0.1,0.1,0.2,0.3,0.2,0.5
			c0,0.2-0.1,0.5-0.3,0.8L919.6,481.8z"/>
	</g>
	<g>
		<path d="M948.2,457.3c0,0.1,0,0.2,0,0.3c0,0.1,0,0.2-0.1,0.2c0,0.1-0.1,0.1-0.1,0.2c0,0-0.1,0.1-0.2,0.1H945v9c0,0.1,0,0.1,0,0.1
			c0,0-0.1,0.1-0.2,0.1c-0.1,0-0.2,0.1-0.3,0.1c-0.1,0-0.3,0-0.4,0c-0.2,0-0.3,0-0.4,0c-0.1,0-0.2,0-0.3-0.1s-0.1-0.1-0.2-0.1
			s-0.1-0.1-0.1-0.1v-9h-2.8c-0.1,0-0.1,0-0.2-0.1s-0.1-0.1-0.1-0.2s-0.1-0.1-0.1-0.2c0-0.1,0-0.2,0-0.3c0-0.1,0-0.2,0-0.3
			c0-0.1,0-0.2,0.1-0.3c0-0.1,0.1-0.1,0.1-0.2s0.1-0.1,0.2-0.1h7.5c0.1,0,0.1,0,0.2,0.1c0,0,0.1,0.1,0.1,0.2c0,0.1,0.1,0.2,0.1,0.3
			C948.2,457,948.2,457.1,948.2,457.3z M962.5,467.1c0,0.1,0,0.1,0,0.1c0,0-0.1,0.1-0.1,0.1s-0.2,0.1-0.3,0.1s-0.3,0-0.4,0
			c-0.2,0-0.3,0-0.4,0c-0.1,0-0.2,0-0.3-0.1c-0.1,0-0.1-0.1-0.1-0.1s0-0.1,0-0.1v-8.8h0l-3.5,8.9c0,0.1-0.1,0.2-0.3,0.2
			c-0.2,0-0.4,0.1-0.7,0.1c-0.2,0-0.4,0-0.6-0.1s-0.2-0.1-0.3-0.2l-3.4-8.9h0v8.8c0,0.1,0,0.1,0,0.1s-0.1,0.1-0.1,0.1
			c-0.1,0-0.1,0.1-0.3,0.1c-0.1,0-0.2,0-0.4,0c-0.2,0-0.3,0-0.4,0c-0.1,0-0.2,0-0.3-0.1c-0.1,0-0.1-0.1-0.1-0.1c0,0,0-0.1,0-0.1
			v-9.8c0-0.3,0.1-0.5,0.2-0.6c0.2-0.1,0.3-0.2,0.6-0.2h1c0.2,0,0.4,0,0.6,0s0.3,0.1,0.4,0.2c0.1,0.1,0.2,0.2,0.3,0.3
			c0.1,0.1,0.2,0.3,0.3,0.6l2.7,7.2l2.9-7.2c0.2-0.4,0.4-0.7,0.6-0.9s0.5-0.3,0.9-0.3h1c0.2,0,0.4,0.1,0.6,0.2
			c0.1,0.1,0.2,0.3,0.2,0.6V467.1z"/>
	</g>
	<g>
		<path class="st3" d="M596.2,522.3c0,0.1,0,0.2,0,0.3c0,0.1,0,0.2-0.1,0.2c0,0.1-0.1,0.1-0.1,0.2c0,0-0.1,0.1-0.2,0.1H593v9
			c0,0.1,0,0.1,0,0.1c0,0-0.1,0.1-0.2,0.1c-0.1,0-0.2,0.1-0.3,0.1c-0.1,0-0.3,0-0.4,0c-0.2,0-0.3,0-0.4,0c-0.1,0-0.2,0-0.3-0.1
			s-0.1-0.1-0.2-0.1c0,0-0.1-0.1-0.1-0.1v-9h-2.8c-0.1,0-0.1,0-0.2-0.1s-0.1-0.1-0.1-0.2s-0.1-0.1-0.1-0.2c0-0.1,0-0.2,0-0.3
			c0-0.1,0-0.2,0-0.3c0-0.1,0-0.2,0.1-0.3c0-0.1,0.1-0.1,0.1-0.2c0.1,0,0.1-0.1,0.2-0.1h7.5c0.1,0,0.1,0,0.2,0.1
			c0,0,0.1,0.1,0.1,0.2c0,0.1,0.1,0.2,0.1,0.3C596.2,522,596.2,522.1,596.2,522.3z M610.5,532.1c0,0.1,0,0.1,0,0.1
			c0,0-0.1,0.1-0.1,0.1s-0.2,0.1-0.3,0.1s-0.3,0-0.4,0c-0.2,0-0.3,0-0.4,0c-0.1,0-0.2,0-0.3-0.1c-0.1,0-0.1-0.1-0.1-0.1
			c0,0,0-0.1,0-0.1v-8.8h0l-3.5,8.9c0,0.1-0.1,0.2-0.3,0.2c-0.2,0-0.4,0.1-0.7,0.1c-0.2,0-0.4,0-0.6-0.1s-0.2-0.1-0.3-0.2l-3.4-8.9
			h0v8.8c0,0.1,0,0.1,0,0.1c0,0-0.1,0.1-0.1,0.1c-0.1,0-0.1,0.1-0.3,0.1c-0.1,0-0.2,0-0.4,0c-0.2,0-0.3,0-0.4,0
			c-0.1,0-0.2,0-0.3-0.1c-0.1,0-0.1-0.1-0.1-0.1c0,0,0-0.1,0-0.1v-9.8c0-0.3,0.1-0.5,0.2-0.6c0.2-0.1,0.3-0.2,0.6-0.2h1
			c0.2,0,0.4,0,0.6,0s0.3,0.1,0.4,0.2c0.1,0.1,0.2,0.2,0.3,0.3c0.1,0.1,0.2,0.3,0.3,0.6l2.7,7.2l2.9-7.2c0.2-0.4,0.4-0.7,0.6-0.9
			s0.5-0.3,0.9-0.3h1c0.2,0,0.4,0.1,0.6,0.2c0.1,0.1,0.2,0.3,0.2,0.6V532.1z"/>
	</g>
</g>
</svg>
