<?xml version="1.0" encoding="utf-8"?>
<!-- Generator: Adobe Illustrator 22.0.0, SVG Export Plug-In . SVG Version: 6.00 Build 0)  -->
<svg version="1.1" xmlns="http://www.w3.org/2000/svg" xmlns:xlink="http://www.w3.org/1999/xlink" x="0px" y="0px"
	 viewBox="0 0 995.6 311.7" style="enable-background:new 0 0 995.6 311.7;" xml:space="preserve">
<style type="text/css">
	.st0{fill:#F94E4E;}
	.st1{fill:#345BB2;}
	.st2{fill:#595959;}
	.st3{fill:#4D4D4D;}
</style>
<g id="sun">
</g>
<g id="snow_x5F_flake">
	<g>
		<path class="st0" d="M156.2,123.9C156.2,123.9,156.3,123.9,156.2,123.9L90.8,58.4c-3-3-8-3-11,0l-1.5,1.5c-3,3-3,8,0,11l65,65
			c0.5-0.8,1.1-1.5,1.7-2.2C148.1,129.9,151.9,126.6,156.2,123.9z"/>
		<path class="st0" d="M184.2,118.9V24.7c0-3.6-3-6.6-6.6-6.6h-1.8c-3.6,0-6.6,3-6.6,6.6v94.7c2.9-0.6,6-0.9,9.1-0.9
			C180.3,118.5,182.3,118.6,184.2,118.9z"/>
		<path class="st0" d="M211.1,133c0.7,0.8,1.4,1.6,2,2.5l62.2-62.2c3-3,3-8,0-11.1l-1.5-1.5c-3-3-8-3-11.1,0l-62.9,62.9
			C204.1,126.1,207.9,129.3,211.1,133z"/>
		<path class="st0" d="M136.4,154.3H41.4c-3.6,0-6.6,3-6.6,6.6v3H136c-0.1-1-0.1-1.9-0.1-2.9C135.9,158.7,136.1,156.4,136.4,154.3z"
			/>
		<path class="st0" d="M317.5,154.3h-96.3c0.3,2.2,0.5,4.4,0.5,6.6c0,1,0,2-0.1,2.9h102.5v-3C324.1,157.2,321.1,154.3,317.5,154.3z"
			/>
		<g>
			<path class="st0" d="M222.2,154.3c-1.1-7.3-4-14.1-8.2-19.8c-0.6-0.9-1.3-1.7-2-2.5c-3.2-3.7-7-6.9-11.3-9.5
				c-0.1,0-0.2-0.1-0.3-0.2c-4.9-2.8-10.4-4.8-16.3-5.6c-1.9-0.3-3.9-0.4-5.9-0.4c-3.1,0-6.1,0.3-9.1,0.9c-5,1-9.8,2.9-14,5.5
				c0,0,0,0,0,0c-4.3,2.6-8.1,6-11.3,9.8c-0.6,0.7-1.2,1.5-1.7,2.2c-4,5.6-6.8,12.2-7.9,19.3c-0.3,2.2-0.5,4.4-0.5,6.6
				c0,1,0,2,0.1,2.9h15.8H205h17.6c0.1-1,0.1-1.9,0.1-2.9C222.7,158.7,222.6,156.4,222.2,154.3z"/>
		</g>
		<path class="st1" d="M265.4,185.9h-22.2h-57.3h-1.2h-18.1h-1.1h-42.3H88.5h-2H33.9v2.9c0,3.6,3,6.6,6.6,6.6h36.6l-41.8,41.8
			c-2.6,2.6-2.6,6.7,0,9.3l1.3,1.3c2.6,2.6,6.7,2.6,9.3,0l52.4-52.4h31.5h24.6h1.7l-16.5,16.5l0-0.2l-16.3,15.6l0,0.2l-37,2.5
			c-3.6,0.2-6.4,3.4-6.1,7l0.1,1.8c0.2,3.6,3.4,6.4,7,6.1l20.8-1.4l-27.6,27.6c-2.6,2.6-2.6,6.7,0,9.3l1.3,1.3
			c2.6,2.6,6.7,2.6,9.3,0l30.2-30.2l-2.1,25.5c-0.3,3.6,2.4,6.8,6,7.1l1.8,0.2c3.6,0.3,6.8-2.4,7.1-6l3.6-43.2l23.5-23.6l0.1,0
			l14.6-14.6l26.4,26.4l-0.2,0l15.6,16.3l0.2,0l2.5,37c0.2,3.6,3.4,6.4,7,6.1l1.8-0.1c3.6-0.2,6.4-3.4,6.1-7l-1.4-20.8l27.6,27.6
			c2.6,2.6,6.7,2.6,9.3,0l1.3-1.3c2.6-2.6,2.6-6.7,0-9.3l-30.2-30.2l25.5,2.1c3.6,0.3,6.8-2.4,7.1-6l0.2-1.8c0.3-3.6-2.4-6.8-6-7.1
			l-43.2-3.6l-23.6-23.5l0-0.1l-6.2-6.2h13h35.3h13.5c0,0-0.1,0.1-0.1,0.1l52.4,52.4c2.6,2.6,6.7,2.6,9.3,0l1.3-1.3
			c2.6-2.6,2.6-6.7,0-9.3l-41.9-41.9h41c3.6,0,6.6-3,6.6-6.6v-2.9h-57H265.4z"/>
	</g>
</g>
<g id="text">
	<g>
		<path class="st2" d="M374.2,213.2c0,0.8-0.1,1.5-0.3,2.2c-0.2,0.7-0.5,1.3-0.8,1.8c-0.4,0.5-0.8,1-1.3,1.4c-0.5,0.4-1.1,0.7-1.7,1
			s-1.3,0.5-2.1,0.6c-0.7,0.1-1.6,0.2-2.5,0.2h-6.6c-0.3,0-0.6-0.1-0.8-0.3c-0.3-0.2-0.4-0.6-0.4-1.1v-22.5c0-0.5,0.1-0.9,0.4-1.1
			c0.3-0.2,0.5-0.3,0.8-0.3h5.7c1.5,0,2.7,0.1,3.7,0.4c1,0.3,1.8,0.7,2.4,1.3s1.1,1.2,1.5,2c0.3,0.8,0.5,1.7,0.5,2.7
			c0,0.6-0.1,1.2-0.2,1.7c-0.1,0.5-0.4,1.1-0.6,1.5c-0.3,0.5-0.6,0.9-1.1,1.2c-0.4,0.4-0.9,0.7-1.5,0.9c0.7,0.1,1.3,0.4,1.9,0.7
			c0.6,0.3,1.1,0.8,1.6,1.3s0.8,1.2,1.1,1.9C374,211.5,374.2,212.3,374.2,213.2z M369.1,201.9c0-0.6-0.1-1.2-0.3-1.7
			s-0.4-0.9-0.8-1.3s-0.8-0.6-1.4-0.8c-0.6-0.2-1.4-0.3-2.3-0.3h-3.5v8.2h3.8c0.9,0,1.6-0.1,2.1-0.3s1-0.5,1.3-0.9
			c0.4-0.4,0.6-0.8,0.8-1.3C369,203,369.1,202.4,369.1,201.9z M370.6,213.4c0-0.8-0.1-1.4-0.4-2c-0.2-0.6-0.6-1.1-1.1-1.4
			s-1-0.7-1.7-0.9c-0.7-0.2-1.6-0.3-2.6-0.3h-4v8.9h4.9c0.8,0,1.4-0.1,2-0.3c0.6-0.2,1.1-0.5,1.5-0.8c0.4-0.4,0.8-0.8,1-1.3
			C370.5,214.7,370.6,214.1,370.6,213.4z"/>
		<path class="st2" d="M386.5,220.4l-2.3,6.5c-0.1,0.2-0.3,0.4-0.6,0.5c-0.3,0.1-0.8,0.2-1.5,0.2c-0.3,0-0.6,0-0.8,0
			c-0.2,0-0.4-0.1-0.5-0.2c-0.1-0.1-0.2-0.2-0.2-0.3c0-0.1,0-0.3,0.1-0.5l2.4-6.1c-0.1-0.1-0.2-0.1-0.3-0.3
			c-0.1-0.1-0.2-0.2-0.2-0.4l-6.3-16.8c-0.1-0.3-0.2-0.5-0.2-0.6s0.1-0.3,0.2-0.4c0.1-0.1,0.3-0.2,0.5-0.2s0.5,0,0.9,0s0.7,0,0.9,0
			c0.2,0,0.4,0.1,0.5,0.1c0.1,0.1,0.2,0.1,0.3,0.2s0.1,0.2,0.2,0.4l5,14.1h0.1l4.8-14.2c0.1-0.2,0.2-0.4,0.3-0.5
			c0.1-0.1,0.3-0.1,0.5-0.2c0.2,0,0.5,0,1,0c0.4,0,0.7,0,0.9,0s0.4,0.1,0.5,0.2c0.1,0.1,0.2,0.2,0.2,0.4s0,0.4-0.1,0.6L386.5,220.4z
			"/>
		<path class="st2" d="M424.2,219.9c0,0.1,0,0.2-0.1,0.3c-0.1,0.1-0.1,0.1-0.3,0.2c-0.1,0-0.3,0.1-0.5,0.1s-0.5,0-0.8,0
			c-0.3,0-0.6,0-0.8,0c-0.2,0-0.4-0.1-0.5-0.1c-0.1,0-0.2-0.1-0.3-0.2c-0.1-0.1-0.1-0.2-0.1-0.3v-11.2h-11.5v11.2
			c0,0.1,0,0.2-0.1,0.3c-0.1,0.1-0.1,0.1-0.3,0.2c-0.1,0-0.3,0.1-0.5,0.1s-0.5,0-0.8,0c-0.3,0-0.6,0-0.8,0c-0.2,0-0.4-0.1-0.5-0.1
			c-0.1,0-0.2-0.1-0.3-0.2c-0.1-0.1-0.1-0.2-0.1-0.3v-24.3c0-0.1,0-0.2,0.1-0.3c0.1-0.1,0.1-0.1,0.3-0.2c0.1,0,0.3-0.1,0.5-0.1
			c0.2,0,0.5,0,0.8,0c0.3,0,0.6,0,0.8,0s0.4,0.1,0.5,0.1c0.1,0,0.2,0.1,0.3,0.2c0.1,0.1,0.1,0.2,0.1,0.3v10.1h11.5v-10.1
			c0-0.1,0-0.2,0.1-0.3c0.1-0.1,0.1-0.1,0.3-0.2c0.1,0,0.3-0.1,0.5-0.1c0.2,0,0.5,0,0.8,0c0.3,0,0.6,0,0.8,0s0.4,0.1,0.5,0.1
			c0.1,0,0.2,0.1,0.3,0.2c0.1,0.1,0.1,0.2,0.1,0.3V219.9z"/>
		<path class="st2" d="M446.9,211c0,1.4-0.2,2.8-0.6,4c-0.4,1.2-0.9,2.2-1.7,3.1c-0.7,0.9-1.7,1.6-2.8,2c-1.1,0.5-2.4,0.7-3.9,0.7
			c-1.4,0-2.7-0.2-3.8-0.6s-2-1.1-2.7-1.9c-0.7-0.8-1.3-1.8-1.6-3s-0.5-2.5-0.5-4c0-1.4,0.2-2.8,0.6-4s0.9-2.2,1.7-3.1
			c0.7-0.9,1.7-1.5,2.8-2c1.1-0.5,2.4-0.7,3.9-0.7c1.4,0,2.7,0.2,3.8,0.6s2,1.1,2.7,1.9c0.7,0.8,1.3,1.8,1.6,3
			C446.7,208.2,446.9,209.5,446.9,211z M443.6,211.2c0-1-0.1-1.8-0.3-2.7c-0.2-0.8-0.5-1.6-0.9-2.2c-0.4-0.6-1-1.1-1.7-1.5
			s-1.6-0.6-2.6-0.6c-1,0-1.8,0.2-2.5,0.5s-1.3,0.8-1.7,1.4s-0.8,1.4-1,2.2c-0.2,0.8-0.3,1.8-0.3,2.8c0,1,0.1,1.9,0.3,2.7
			c0.2,0.8,0.5,1.6,0.9,2.2c0.4,0.6,1,1.1,1.7,1.5c0.7,0.4,1.6,0.6,2.6,0.6c0.9,0,1.8-0.2,2.5-0.5c0.7-0.3,1.3-0.8,1.7-1.4
			s0.8-1.3,1-2.2C443.5,213.1,443.6,212.2,443.6,211.2z"/>
		<path class="st2" d="M466.7,220c0,0.1,0,0.2-0.1,0.3c0,0.1-0.1,0.1-0.2,0.2s-0.3,0.1-0.5,0.1c-0.2,0-0.4,0-0.7,0
			c-0.3,0-0.5,0-0.7,0c-0.2,0-0.3-0.1-0.4-0.1c-0.1-0.1-0.2-0.1-0.2-0.2s-0.1-0.2-0.1-0.3v-2.3c-1,1.1-2,1.9-3,2.4s-2,0.8-3,0.8
			c-1.2,0-2.2-0.2-3-0.6s-1.4-0.9-1.9-1.6c-0.5-0.7-0.8-1.5-1.1-2.3s-0.3-2-0.3-3.3v-10.7c0-0.1,0-0.2,0.1-0.3
			c0-0.1,0.1-0.1,0.3-0.2c0.1-0.1,0.3-0.1,0.5-0.1c0.2,0,0.5,0,0.8,0s0.6,0,0.8,0c0.2,0,0.4,0.1,0.5,0.1c0.1,0.1,0.2,0.1,0.3,0.2
			c0.1,0.1,0.1,0.2,0.1,0.3v10.2c0,1,0.1,1.9,0.2,2.5c0.1,0.6,0.4,1.1,0.7,1.6c0.3,0.4,0.7,0.8,1.2,1s1,0.4,1.6,0.4
			c0.8,0,1.6-0.3,2.4-0.9s1.7-1.4,2.5-2.5v-12.3c0-0.1,0-0.2,0.1-0.3c0-0.1,0.1-0.1,0.3-0.2c0.1-0.1,0.3-0.1,0.5-0.1
			c0.2,0,0.5,0,0.8,0c0.3,0,0.6,0,0.8,0c0.2,0,0.4,0.1,0.5,0.1s0.2,0.1,0.3,0.2s0.1,0.2,0.1,0.3V220z"/>
		<path class="st2" d="M483.7,215.2c0,0.9-0.2,1.7-0.5,2.4s-0.8,1.3-1.4,1.8c-0.6,0.5-1.3,0.8-2.2,1.1c-0.8,0.2-1.8,0.4-2.8,0.4
			c-0.6,0-1.2,0-1.8-0.1s-1.1-0.2-1.5-0.4s-0.8-0.3-1.1-0.5s-0.5-0.3-0.7-0.4c-0.1-0.1-0.2-0.3-0.3-0.5c-0.1-0.2-0.1-0.6-0.1-1
			c0-0.2,0-0.5,0-0.6c0-0.2,0.1-0.3,0.1-0.4s0.1-0.2,0.2-0.2c0.1,0,0.2-0.1,0.2-0.1c0.1,0,0.4,0.1,0.6,0.3c0.3,0.2,0.6,0.4,1,0.6
			s0.9,0.4,1.5,0.6c0.6,0.2,1.2,0.3,1.9,0.3c0.5,0,1-0.1,1.5-0.2c0.4-0.1,0.8-0.3,1.2-0.5c0.3-0.2,0.6-0.5,0.8-0.9s0.3-0.8,0.3-1.3
			c0-0.5-0.1-0.9-0.4-1.3s-0.6-0.6-1-0.9c-0.4-0.3-0.9-0.5-1.4-0.7c-0.5-0.2-1.1-0.4-1.6-0.6c-0.6-0.2-1.1-0.5-1.6-0.8s-1-0.6-1.4-1
			c-0.4-0.4-0.8-0.9-1-1.4s-0.4-1.2-0.4-2c0-0.7,0.1-1.4,0.4-2c0.3-0.6,0.7-1.2,1.2-1.7c0.5-0.5,1.2-0.9,2-1.1s1.7-0.4,2.8-0.4
			c0.5,0,0.9,0,1.4,0.1s0.9,0.2,1.3,0.3c0.4,0.1,0.7,0.2,1,0.4c0.3,0.1,0.5,0.3,0.6,0.4s0.2,0.2,0.3,0.3c0,0.1,0.1,0.2,0.1,0.3
			s0,0.2,0.1,0.4s0,0.3,0,0.5c0,0.2,0,0.4,0,0.6s-0.1,0.3-0.1,0.4c0,0.1-0.1,0.2-0.2,0.2c-0.1,0-0.1,0.1-0.2,0.1
			c-0.1,0-0.3-0.1-0.5-0.2c-0.2-0.1-0.5-0.3-0.9-0.5s-0.8-0.3-1.2-0.5c-0.5-0.1-1-0.2-1.6-0.2c-0.5,0-1,0.1-1.4,0.2
			c-0.4,0.1-0.8,0.3-1,0.5c-0.3,0.2-0.5,0.5-0.6,0.8s-0.2,0.7-0.2,1c0,0.5,0.1,0.9,0.4,1.3c0.3,0.3,0.6,0.6,1,0.9
			c0.4,0.3,0.9,0.5,1.4,0.7c0.5,0.2,1.1,0.4,1.6,0.6c0.6,0.2,1.1,0.5,1.6,0.7c0.5,0.3,1,0.6,1.4,1c0.4,0.4,0.8,0.9,1,1.4
			S483.7,214.4,483.7,215.2z"/>
		<path class="st2" d="M503.3,210.4c0,0.5-0.1,0.9-0.4,1.1c-0.3,0.2-0.5,0.3-0.9,0.3h-11.6c0,1,0.1,1.9,0.3,2.6c0.2,0.8,0.5,1.5,1,2
			c0.5,0.6,1.1,1,1.8,1.3s1.6,0.4,2.7,0.4c0.8,0,1.6-0.1,2.2-0.2s1.2-0.3,1.7-0.5c0.5-0.2,0.9-0.3,1.2-0.5c0.3-0.1,0.5-0.2,0.7-0.2
			c0.1,0,0.2,0,0.2,0.1c0.1,0,0.1,0.1,0.2,0.2s0.1,0.2,0.1,0.4s0,0.4,0,0.6c0,0.2,0,0.3,0,0.4c0,0.1,0,0.2,0,0.3s-0.1,0.2-0.1,0.3
			c0,0.1-0.1,0.2-0.2,0.2c-0.1,0.1-0.3,0.2-0.6,0.4s-0.8,0.3-1.4,0.5c-0.6,0.2-1.2,0.3-1.9,0.4c-0.7,0.1-1.5,0.2-2.4,0.2
			c-1.4,0-2.7-0.2-3.8-0.6c-1.1-0.4-2-1-2.7-1.8s-1.3-1.8-1.7-3c-0.4-1.2-0.6-2.6-0.6-4.2c0-1.5,0.2-2.9,0.6-4.1s1-2.2,1.7-3.1
			c0.7-0.8,1.6-1.5,2.7-1.9c1-0.4,2.2-0.7,3.5-0.7c1.4,0,2.6,0.2,3.5,0.7c1,0.4,1.8,1,2.4,1.8s1.1,1.6,1.4,2.6s0.4,2.1,0.4,3.2
			V210.4z M500.1,209.4c0-1.7-0.3-3-1.1-4c-0.8-1-2-1.4-3.5-1.4c-0.8,0-1.5,0.1-2.1,0.4c-0.6,0.3-1.1,0.7-1.5,1.2
			c-0.4,0.5-0.7,1.1-0.9,1.7c-0.2,0.7-0.3,1.3-0.4,2.1H500.1z"/>
		<path class="st2" d="M525.5,216.9c0,0.2,0,0.4,0,0.5s0,0.3-0.1,0.4s-0.1,0.2-0.1,0.3s-0.1,0.2-0.3,0.3s-0.4,0.3-0.8,0.6
			s-0.9,0.5-1.6,0.8s-1.3,0.5-2.1,0.6s-1.7,0.3-2.6,0.3c-1.6,0-3.1-0.3-4.4-0.8s-2.4-1.4-3.4-2.4s-1.6-2.4-2.1-4s-0.8-3.4-0.8-5.4
			c0-2.1,0.3-4,0.8-5.6s1.3-3,2.3-4.2s2.1-2,3.5-2.6s2.9-0.9,4.5-0.9c0.7,0,1.4,0.1,2.1,0.2s1.3,0.3,1.9,0.5s1.1,0.4,1.6,0.7
			s0.8,0.5,0.9,0.7s0.3,0.3,0.3,0.4s0.1,0.2,0.1,0.3s0.1,0.3,0.1,0.4s0,0.4,0,0.6c0,0.3,0,0.5,0,0.7s-0.1,0.3-0.1,0.5
			s-0.1,0.2-0.2,0.3s-0.2,0.1-0.3,0.1c-0.2,0-0.4-0.1-0.8-0.4c-0.3-0.3-0.7-0.5-1.3-0.8c-0.5-0.3-1.1-0.6-1.9-0.8s-1.6-0.4-2.7-0.4
			c-1.1,0-2.2,0.2-3.1,0.7s-1.7,1.1-2.4,2s-1.2,1.9-1.5,3.2s-0.5,2.7-0.5,4.3c0,1.6,0.2,3,0.5,4.2s0.8,2.3,1.5,3.1
			c0.6,0.8,1.4,1.5,2.4,1.9s2,0.6,3.2,0.6c1,0,1.9-0.1,2.6-0.4c0.8-0.2,1.4-0.5,1.9-0.8c0.5-0.3,1-0.6,1.3-0.8
			c0.3-0.2,0.6-0.4,0.8-0.4c0.1,0,0.2,0,0.2,0.1c0.1,0,0.1,0.1,0.2,0.2s0.1,0.3,0.1,0.5S525.5,216.6,525.5,216.9z"/>
		<path class="st2" d="M545.9,211c0,1.4-0.2,2.8-0.6,4s-0.9,2.2-1.7,3.1s-1.7,1.6-2.8,2s-2.4,0.7-3.9,0.7c-1.4,0-2.7-0.2-3.8-0.6
			s-2-1.1-2.7-1.9s-1.3-1.8-1.6-3s-0.5-2.5-0.5-4c0-1.4,0.2-2.8,0.6-4s0.9-2.2,1.7-3.1s1.7-1.5,2.8-2s2.4-0.7,3.9-0.7
			c1.4,0,2.7,0.2,3.8,0.6s2,1.1,2.7,1.9s1.3,1.8,1.6,3S545.9,209.5,545.9,211z M542.6,211.2c0-1-0.1-1.8-0.3-2.7
			c-0.2-0.8-0.5-1.6-0.9-2.2s-1-1.1-1.7-1.5s-1.6-0.6-2.6-0.6c-1,0-1.8,0.2-2.5,0.5c-0.7,0.3-1.3,0.8-1.7,1.4
			c-0.4,0.6-0.8,1.4-1,2.2s-0.3,1.8-0.3,2.8c0,1,0.1,1.9,0.3,2.7c0.2,0.8,0.5,1.6,0.9,2.2c0.4,0.6,1,1.1,1.7,1.5
			c0.7,0.4,1.6,0.6,2.6,0.6c0.9,0,1.8-0.2,2.5-0.5s1.3-0.8,1.7-1.4c0.4-0.6,0.8-1.3,1-2.2S542.6,212.2,542.6,211.2z"/>
		<path class="st2" d="M576.7,220c0,0.1,0,0.2-0.1,0.3s-0.1,0.1-0.3,0.2s-0.3,0.1-0.5,0.1s-0.5,0-0.8,0c-0.3,0-0.6,0-0.8,0
			s-0.4-0.1-0.5-0.1s-0.2-0.1-0.3-0.2s-0.1-0.2-0.1-0.3v-10.7c0-0.7-0.1-1.4-0.2-2s-0.3-1.1-0.6-1.6s-0.7-0.8-1.1-1s-1-0.4-1.6-0.4
			c-0.7,0-1.5,0.3-2.2,0.9s-1.6,1.4-2.5,2.5V220c0,0.1,0,0.2-0.1,0.3s-0.1,0.1-0.3,0.2s-0.3,0.1-0.5,0.1s-0.5,0-0.8,0
			c-0.3,0-0.6,0-0.8,0s-0.4-0.1-0.5-0.1s-0.2-0.1-0.3-0.2s-0.1-0.2-0.1-0.3v-10.7c0-0.7-0.1-1.4-0.2-2s-0.4-1.1-0.6-1.6
			s-0.6-0.8-1.1-1s-1-0.4-1.6-0.4c-0.7,0-1.5,0.3-2.2,0.9s-1.6,1.4-2.5,2.5V220c0,0.1,0,0.2-0.1,0.3s-0.1,0.1-0.3,0.2
			s-0.3,0.1-0.5,0.1s-0.5,0-0.8,0c-0.3,0-0.6,0-0.8,0s-0.4-0.1-0.5-0.1s-0.2-0.1-0.3-0.2s-0.1-0.2-0.1-0.3v-17.6
			c0-0.1,0-0.2,0.1-0.3s0.1-0.1,0.2-0.2s0.3-0.1,0.4-0.1s0.4,0,0.7,0c0.3,0,0.5,0,0.7,0s0.3,0.1,0.4,0.1s0.2,0.1,0.2,0.2
			s0.1,0.2,0.1,0.3v2.3c1-1.1,2-1.9,2.9-2.4s1.9-0.8,2.8-0.8c0.7,0,1.4,0.1,2,0.3s1.1,0.4,1.5,0.7s0.8,0.7,1.1,1.1s0.6,0.9,0.8,1.4
			c0.6-0.6,1.1-1.2,1.7-1.6s1-0.8,1.5-1.1s1-0.5,1.4-0.6s0.9-0.2,1.4-0.2c1.1,0,2.1,0.2,2.9,0.6s1.4,0.9,1.9,1.6s0.8,1.4,1,2.3
			s0.3,1.8,0.3,2.8V220z"/>
	</g>
	<g>
		<path d="M384.4,130.1c0,0.7-0.1,1.3-0.3,1.6c-0.2,0.4-0.5,0.5-0.8,0.5h-12.7v38.8c0,0.2,0,0.3-0.1,0.4s-0.2,0.2-0.4,0.3
			c-0.2,0.1-0.4,0.2-0.8,0.2c-0.3,0.1-0.7,0.1-1.2,0.1c-0.5,0-0.9,0-1.3-0.1c-0.3-0.1-0.6-0.1-0.8-0.2c-0.2-0.1-0.3-0.2-0.4-0.3
			s-0.1-0.3-0.1-0.4v-38.8h-12.7c-0.2,0-0.3,0-0.5-0.1c-0.1-0.1-0.3-0.2-0.4-0.4c-0.1-0.2-0.2-0.4-0.2-0.7c0-0.3-0.1-0.6-0.1-1
			c0-0.4,0-0.7,0.1-1c0-0.3,0.1-0.5,0.2-0.7c0.1-0.2,0.2-0.3,0.4-0.4c0.1-0.1,0.3-0.1,0.5-0.1h30.5c0.2,0,0.3,0,0.5,0.1
			c0.1,0.1,0.3,0.2,0.4,0.4c0.1,0.2,0.2,0.4,0.2,0.7C384.4,129.4,384.4,129.7,384.4,130.1z"/>
		<path d="M426.8,171.2c0,0.1,0,0.3-0.1,0.4s-0.2,0.2-0.4,0.3c-0.2,0.1-0.4,0.1-0.7,0.2c-0.3,0-0.6,0.1-1.1,0.1c-0.4,0-0.8,0-1-0.1
			c-0.3,0-0.5-0.1-0.7-0.2c-0.2-0.1-0.3-0.2-0.3-0.3c-0.1-0.1-0.1-0.2-0.1-0.4v-17.5H403v17.5c0,0.1,0,0.3-0.1,0.4
			c-0.1,0.1-0.2,0.2-0.4,0.3c-0.2,0.1-0.4,0.1-0.7,0.2c-0.3,0-0.6,0.1-1,0.1c-0.4,0-0.8,0-1.1-0.1c-0.3,0-0.5-0.1-0.7-0.2
			c-0.2-0.1-0.3-0.2-0.4-0.3s-0.1-0.2-0.1-0.4V134c0-0.1,0-0.2,0.1-0.3s0.2-0.2,0.4-0.3c0.2-0.1,0.4-0.1,0.7-0.2
			c0.3,0,0.6-0.1,1.1-0.1c0.4,0,0.8,0,1,0.1c0.3,0,0.5,0.1,0.7,0.2c0.2,0.1,0.3,0.2,0.4,0.3c0.1,0.1,0.1,0.2,0.1,0.3v15.8h19.4V134
			c0-0.1,0-0.2,0.1-0.3c0.1-0.1,0.2-0.2,0.3-0.3c0.2-0.1,0.4-0.1,0.7-0.2c0.3,0,0.6-0.1,1-0.1c0.4,0,0.8,0,1.1,0.1
			c0.3,0,0.5,0.1,0.7,0.2c0.2,0.1,0.3,0.2,0.4,0.3s0.1,0.2,0.1,0.3V171.2z"/>
		<path d="M467.1,170c0,0.3,0,0.6-0.1,0.8c0,0.2-0.1,0.4-0.2,0.6c-0.1,0.2-0.2,0.3-0.3,0.3c-0.1,0.1-0.3,0.1-0.4,0.1h-18.9
			c-0.4,0-0.8-0.2-1.2-0.5c-0.4-0.3-0.6-0.8-0.6-1.6v-34.4c0-0.8,0.2-1.3,0.6-1.6c0.4-0.3,0.8-0.5,1.2-0.5h18.6c0.1,0,0.3,0,0.4,0.1
			s0.2,0.2,0.3,0.3s0.1,0.4,0.2,0.6c0,0.2,0.1,0.5,0.1,0.8c0,0.3,0,0.6-0.1,0.8s-0.1,0.4-0.2,0.6c-0.1,0.1-0.2,0.3-0.3,0.3
			s-0.3,0.1-0.4,0.1h-15.9V150h13.8c0.1,0,0.3,0,0.4,0.1c0.1,0.1,0.2,0.2,0.3,0.3s0.1,0.3,0.2,0.6c0,0.2,0.1,0.5,0.1,0.9
			c0,0.3,0,0.6-0.1,0.8c0,0.2-0.1,0.4-0.2,0.6s-0.2,0.3-0.3,0.3s-0.3,0.1-0.4,0.1h-13.8v14.5h16.2c0.1,0,0.3,0,0.4,0.1
			c0.1,0.1,0.2,0.2,0.3,0.3c0.1,0.1,0.1,0.3,0.2,0.6C467.1,169.4,467.1,169.7,467.1,170z"/>
		<path d="M509.6,171.2c0,0.1,0,0.3-0.1,0.4c-0.1,0.1-0.2,0.2-0.4,0.3c-0.2,0.1-0.4,0.1-0.7,0.2c-0.3,0-0.7,0.1-1.2,0.1
			c-0.4,0-0.8,0-1.1-0.1s-0.5-0.1-0.7-0.2c-0.2-0.1-0.3-0.2-0.4-0.4c-0.1-0.2-0.2-0.4-0.3-0.6l-3.3-9.1c-0.4-1.1-0.8-2.1-1.3-2.9
			c-0.5-0.9-1-1.7-1.7-2.3c-0.7-0.6-1.4-1.2-2.4-1.5c-0.9-0.4-2.1-0.5-3.6-0.5h-4.3v16.8c0,0.1,0,0.3-0.1,0.4
			c-0.1,0.1-0.2,0.2-0.4,0.3c-0.2,0.1-0.4,0.1-0.7,0.2c-0.3,0-0.6,0.1-1,0.1c-0.4,0-0.8,0-1.1-0.1c-0.3,0-0.5-0.1-0.7-0.2
			c-0.2-0.1-0.3-0.2-0.4-0.3s-0.1-0.2-0.1-0.4v-35.8c0-0.8,0.2-1.3,0.6-1.6c0.4-0.3,0.8-0.5,1.2-0.5h9.1c2.3,0,4.2,0.2,5.7,0.7
			c1.5,0.5,2.8,1.2,3.9,2c1,0.9,1.8,1.9,2.3,3.1c0.5,1.2,0.8,2.5,0.8,3.9c0,1.2-0.2,2.4-0.5,3.4c-0.4,1-0.9,2-1.5,2.8
			c-0.7,0.8-1.4,1.5-2.4,2.1c-0.9,0.6-1.9,1.1-3.1,1.4c0.7,0.3,1.3,0.7,1.9,1.1s1.1,0.9,1.5,1.6c0.5,0.6,0.9,1.3,1.3,2.1
			c0.4,0.8,0.8,1.7,1.2,2.7l3.3,8.9c0.2,0.6,0.4,1.1,0.5,1.3C509.6,170.8,509.6,171,509.6,171.2z M502.7,143.7c0-1-0.1-1.8-0.4-2.6
			s-0.8-1.5-1.4-2.1c-0.6-0.6-1.5-1-2.5-1.4c-1-0.3-2.4-0.5-4.1-0.5h-6.1v13.7h5.9c1.7,0,3-0.2,4.1-0.5c1-0.4,1.9-0.8,2.6-1.5
			c0.7-0.6,1.2-1.4,1.5-2.2C502.5,145.7,502.7,144.7,502.7,143.7z"/>
		<path d="M567.4,171.2c0,0.1,0,0.3-0.1,0.4s-0.2,0.2-0.4,0.3s-0.4,0.1-0.7,0.2c-0.3,0-0.6,0.1-1,0.1c-0.4,0-0.8,0-1-0.1
			c-0.3,0-0.5-0.1-0.7-0.2c-0.2-0.1-0.3-0.2-0.3-0.3c-0.1-0.1-0.1-0.2-0.1-0.4v-33.9h-0.1L548,171.4c-0.1,0.2-0.3,0.4-0.6,0.5
			c-0.3,0.1-0.8,0.2-1.4,0.2c-0.3,0-0.6,0-0.9-0.1c-0.2,0-0.4-0.1-0.6-0.1c-0.1-0.1-0.3-0.1-0.3-0.2c-0.1-0.1-0.2-0.2-0.2-0.3
			l-14.4-34.1h-0.1v33.9c0,0.1,0,0.3-0.1,0.4s-0.2,0.2-0.3,0.3c-0.2,0.1-0.4,0.1-0.7,0.2c-0.3,0-0.6,0.1-1.1,0.1c-0.4,0-0.8,0-1-0.1
			c-0.3,0-0.5-0.1-0.7-0.2s-0.3-0.2-0.3-0.3s-0.1-0.2-0.1-0.4v-35.8c0-0.8,0.2-1.3,0.6-1.6c0.4-0.3,0.8-0.5,1.2-0.5h2.6
			c0.6,0,1,0.1,1.4,0.2c0.4,0.1,0.8,0.3,1.1,0.6c0.3,0.3,0.6,0.6,0.8,1c0.2,0.4,0.4,0.8,0.6,1.3l12.5,29.1h0.1l12.9-28.9
			c0.2-0.6,0.5-1.1,0.8-1.5c0.3-0.4,0.6-0.7,0.9-1c0.3-0.3,0.7-0.4,1.1-0.5s0.9-0.2,1.4-0.2h2.3c0.4,0,0.9,0.2,1.2,0.5
			c0.4,0.3,0.6,0.8,0.6,1.6V171.2z"/>
		<path d="M618.3,152.1c0,3.1-0.4,5.9-1.1,8.4c-0.8,2.5-1.9,4.6-3.3,6.4c-1.5,1.8-3.3,3.1-5.5,4.1c-2.2,1-4.7,1.4-7.6,1.4
			c-2.9,0-5.4-0.4-7.6-1.3c-2.1-0.9-3.9-2.1-5.3-3.8c-1.4-1.7-2.5-3.7-3.1-6.1c-0.7-2.4-1-5.2-1-8.3c0-3,0.4-5.8,1.1-8.3
			c0.8-2.5,1.9-4.6,3.4-6.3c1.5-1.8,3.3-3.1,5.5-4.1c2.2-1,4.7-1.4,7.6-1.4c2.8,0,5.2,0.4,7.3,1.3c2.1,0.9,3.9,2.1,5.3,3.8
			c1.4,1.6,2.5,3.7,3.3,6.1C618,146.3,618.3,149.1,618.3,152.1z M613.7,152.5c0-2.2-0.2-4.3-0.7-6.3s-1.2-3.6-2.1-5
			s-2.3-2.5-3.9-3.4c-1.6-0.8-3.6-1.2-5.9-1.2c-2.3,0-4.3,0.4-5.9,1.3s-2.9,2-3.9,3.5c-1,1.5-1.7,3.2-2.2,5.1
			c-0.5,1.9-0.7,4-0.7,6.1c0,2.3,0.2,4.5,0.6,6.4c0.4,2,1.1,3.6,2.1,5.1s2.3,2.6,3.9,3.4s3.6,1.2,5.9,1.2c2.3,0,4.3-0.4,5.9-1.3
			s2.9-2.1,3.9-3.5c1-1.5,1.7-3.2,2.2-5.2C613.4,156.7,613.7,154.6,613.7,152.5z"/>
		<path d="M659,160c0,2-0.4,3.7-1.2,5.3c-0.8,1.5-1.9,2.8-3.2,3.9c-1.4,1.1-3,1.9-4.9,2.4c-1.9,0.6-3.9,0.9-6.1,0.9
			c-1.4,0-2.7-0.1-4-0.4c-1.3-0.3-2.4-0.6-3.5-1c-1-0.4-1.9-0.8-2.6-1.1c-0.7-0.4-1.2-0.7-1.4-0.9c-0.2-0.2-0.3-0.4-0.4-0.5
			c-0.1-0.1-0.2-0.3-0.2-0.5s-0.1-0.4-0.1-0.6c0-0.2,0-0.5,0-0.9c0-0.4,0-0.7,0-1.1c0-0.3,0.1-0.6,0.2-0.8c0.1-0.2,0.2-0.4,0.3-0.5
			c0.1-0.1,0.3-0.2,0.5-0.2c0.3,0,0.7,0.2,1.3,0.6c0.6,0.4,1.4,0.9,2.4,1.4c1,0.5,2.1,1,3.5,1.4c1.3,0.4,2.8,0.6,4.5,0.6
			c1.4,0,2.7-0.2,3.9-0.5c1.2-0.3,2.2-0.8,3.1-1.5s1.5-1.4,2-2.4c0.5-0.9,0.7-2,0.7-3.2c0-1.3-0.3-2.4-0.9-3.3
			c-0.6-0.9-1.4-1.8-2.4-2.5c-1-0.7-2.2-1.3-3.5-1.9c-1.3-0.6-2.6-1.1-3.9-1.7c-1.3-0.6-2.7-1.2-3.9-1.9c-1.3-0.7-2.5-1.5-3.5-2.5
			c-1-0.9-1.8-2.1-2.4-3.4s-0.9-2.9-0.9-4.7c0-1.6,0.3-3.2,1-4.5s1.6-2.6,2.8-3.6c1.2-1,2.6-1.8,4.2-2.3c1.6-0.6,3.3-0.8,5.2-0.8
			c1.1,0,2.2,0.1,3.3,0.3c1.1,0.2,2.1,0.5,3,0.8c0.9,0.3,1.7,0.7,2.4,1c0.7,0.3,1.1,0.6,1.3,0.8c0.2,0.2,0.3,0.4,0.4,0.5
			c0.1,0.1,0.2,0.3,0.2,0.5c0.1,0.2,0.1,0.4,0.1,0.7c0,0.3,0,0.5,0,0.9c0,0.4,0,0.7,0,1c0,0.3-0.1,0.6-0.2,0.8
			c-0.1,0.2-0.2,0.4-0.3,0.5c-0.1,0.1-0.3,0.2-0.4,0.2c-0.3,0-0.7-0.2-1.2-0.6c-0.6-0.4-1.3-0.8-2.1-1.2c-0.8-0.4-1.9-0.8-3-1.2
			c-1.2-0.4-2.5-0.6-3.9-0.6c-1.2,0-2.3,0.2-3.3,0.5c-1,0.3-1.8,0.8-2.5,1.4c-0.7,0.6-1.2,1.3-1.6,2.1c-0.4,0.8-0.6,1.6-0.6,2.6
			c0,1.3,0.3,2.5,0.9,3.4c0.6,1,1.4,1.8,2.5,2.5s2.2,1.4,3.5,1.9c1.3,0.6,2.6,1.2,4,1.7c1.3,0.6,2.7,1.2,4,1.9
			c1.3,0.7,2.5,1.5,3.5,2.4c1,0.9,1.8,2,2.5,3.3C658.7,156.8,659,158.3,659,160z"/>
		<path d="M697.4,170c0,0.3,0,0.6-0.1,0.8c0,0.2-0.1,0.4-0.2,0.6c-0.1,0.2-0.2,0.3-0.3,0.3s-0.3,0.1-0.4,0.1h-18.9
			c-0.4,0-0.8-0.2-1.2-0.5c-0.4-0.3-0.6-0.8-0.6-1.6v-34.4c0-0.8,0.2-1.3,0.6-1.6c0.4-0.3,0.8-0.5,1.2-0.5h18.6c0.1,0,0.3,0,0.4,0.1
			s0.2,0.2,0.3,0.3c0.1,0.2,0.1,0.4,0.2,0.6c0,0.2,0.1,0.5,0.1,0.8c0,0.3,0,0.6-0.1,0.8c0,0.2-0.1,0.4-0.2,0.6
			c-0.1,0.1-0.2,0.3-0.3,0.3s-0.3,0.1-0.4,0.1h-15.9V150h13.8c0.1,0,0.3,0,0.4,0.1c0.1,0.1,0.2,0.2,0.3,0.3c0.1,0.1,0.1,0.3,0.2,0.6
			c0,0.2,0.1,0.5,0.1,0.9c0,0.3,0,0.6-0.1,0.8c0,0.2-0.1,0.4-0.2,0.6c-0.1,0.2-0.2,0.3-0.3,0.3s-0.3,0.1-0.4,0.1h-13.8v14.5h16.2
			c0.1,0,0.3,0,0.4,0.1s0.2,0.2,0.3,0.3c0.1,0.1,0.1,0.3,0.2,0.6C697.4,169.4,697.4,169.7,697.4,170z"/>
		<path d="M739.7,166.6c0,0.5,0,0.9-0.1,1.2c-0.1,0.3-0.3,0.6-0.6,0.9c-0.3,0.3-0.8,0.7-1.4,1.1c-0.6,0.4-1.4,0.8-2.3,1.2
			c-0.9,0.4-1.9,0.7-3.1,0.9c-1.2,0.3-2.4,0.4-3.8,0.4c-2.5,0-4.8-0.4-6.9-1.3c-2.1-0.9-3.9-2.2-5.4-3.8c-1.5-1.7-2.7-3.7-3.5-6.2
			c-0.8-2.4-1.3-5.2-1.3-8.3c0-3.1,0.4-5.8,1.2-8.3c0.8-2.5,2-4.5,3.5-6.3c1.5-1.7,3.3-3,5.4-4s4.4-1.4,7-1.4c1.2,0,2.3,0.1,3.4,0.3
			c1.1,0.2,2.1,0.5,3,0.9c0.9,0.4,1.8,0.8,2.5,1.2c0.7,0.4,1.3,0.8,1.6,1.1c0.3,0.3,0.5,0.6,0.6,0.9c0.1,0.3,0.1,0.8,0.1,1.4
			c0,0.3,0,0.6-0.1,0.8c0,0.2-0.1,0.4-0.2,0.6c-0.1,0.2-0.2,0.3-0.3,0.3c-0.1,0.1-0.2,0.1-0.4,0.1c-0.3,0-0.6-0.2-1.1-0.6
			c-0.5-0.4-1.1-0.8-1.9-1.3c-0.8-0.5-1.8-0.9-3-1.3s-2.6-0.6-4.3-0.6c-1.8,0-3.5,0.4-5,1.1c-1.5,0.7-2.8,1.7-3.9,3.1
			c-1.1,1.4-1.9,3-2.5,5s-0.9,4.2-0.9,6.7c0,2.5,0.3,4.7,0.9,6.7c0.6,2,1.5,3.6,2.6,4.9c1.1,1.3,2.5,2.4,4.1,3.1
			c1.6,0.7,3.3,1,5.3,1c1.6,0,2.9-0.2,4.1-0.6s2.1-0.8,2.9-1.3c0.8-0.5,1.4-0.9,1.9-1.3c0.5-0.4,0.9-0.6,1.2-0.6
			c0.1,0,0.2,0,0.3,0.1c0.1,0.1,0.2,0.2,0.2,0.4c0.1,0.2,0.1,0.4,0.1,0.6C739.7,165.9,739.7,166.2,739.7,166.6z"/>
		<path d="M783.9,157c0,2.8-0.4,5.2-1.1,7c-0.7,1.8-1.7,3.4-3,4.6c-1.3,1.3-2.8,2.2-4.6,2.9c-1.8,0.7-3.8,1-6,1
			c-2.1,0-4-0.3-5.8-0.9c-1.8-0.6-3.3-1.5-4.6-2.7c-1.3-1.2-2.3-2.7-3-4.5c-0.7-1.8-1-4.2-1-7.3V134c0-0.1,0-0.2,0.1-0.3
			s0.2-0.2,0.4-0.3c0.2-0.1,0.4-0.1,0.7-0.2c0.3,0,0.6-0.1,1-0.1c0.5,0,0.8,0,1.1,0.1c0.3,0,0.5,0.1,0.7,0.2
			c0.2,0.1,0.3,0.2,0.3,0.3s0.1,0.2,0.1,0.3v22.6c0,2.5,0.2,4.5,0.7,5.8s1.2,2.5,2.1,3.4c0.9,0.9,2,1.6,3.3,2.1
			c1.3,0.5,2.7,0.7,4.2,0.7c1.5,0,2.9-0.2,4.2-0.7c1.3-0.5,2.4-1.1,3.3-2c0.9-0.9,1.6-2,2-3.4s0.7-3.2,0.7-5.5v-23
			c0-0.1,0-0.2,0.1-0.3c0.1-0.1,0.2-0.2,0.3-0.3s0.4-0.1,0.7-0.2c0.3,0,0.6-0.1,1-0.1c0.6,0,1,0,1.2,0.1c0.3,0,0.5,0.1,0.6,0.2
			c0.2,0.1,0.3,0.2,0.3,0.3s0.1,0.2,0.1,0.3V157z"/>
		<path d="M828.3,171.2c0,0.1,0,0.3-0.1,0.4s-0.2,0.2-0.4,0.3c-0.2,0.1-0.4,0.1-0.7,0.2c-0.3,0-0.7,0.1-1.2,0.1
			c-0.4,0-0.8,0-1.1-0.1s-0.5-0.1-0.7-0.2c-0.2-0.1-0.3-0.2-0.4-0.4c-0.1-0.2-0.2-0.4-0.3-0.6l-3.3-9.1c-0.4-1.1-0.8-2.1-1.3-2.9
			c-0.5-0.9-1-1.7-1.7-2.3c-0.7-0.6-1.4-1.2-2.4-1.5c-0.9-0.4-2.1-0.5-3.6-0.5h-4.3v16.8c0,0.1,0,0.3-0.1,0.4s-0.2,0.2-0.4,0.3
			c-0.2,0.1-0.4,0.1-0.7,0.2c-0.3,0-0.6,0.1-1,0.1c-0.4,0-0.8,0-1.1-0.1c-0.3,0-0.5-0.1-0.7-0.2c-0.2-0.1-0.3-0.2-0.4-0.3
			s-0.1-0.2-0.1-0.4v-35.8c0-0.8,0.2-1.3,0.6-1.6c0.4-0.3,0.8-0.5,1.2-0.5h9.1c2.3,0,4.2,0.2,5.7,0.7c1.5,0.5,2.8,1.2,3.9,2
			c1,0.9,1.8,1.9,2.3,3.1c0.5,1.2,0.8,2.5,0.8,3.9c0,1.2-0.2,2.4-0.5,3.4s-0.9,2-1.5,2.8c-0.7,0.8-1.4,1.5-2.4,2.1
			c-0.9,0.6-1.9,1.1-3.1,1.4c0.7,0.3,1.3,0.7,1.9,1.1c0.6,0.4,1.1,0.9,1.5,1.6c0.5,0.6,0.9,1.3,1.3,2.1c0.4,0.8,0.8,1.7,1.2,2.7
			l3.3,8.9c0.2,0.6,0.4,1.1,0.5,1.3C828.3,170.8,828.3,171,828.3,171.2z M821.4,143.7c0-1-0.1-1.8-0.4-2.6c-0.3-0.8-0.8-1.5-1.4-2.1
			c-0.6-0.6-1.5-1-2.5-1.4c-1-0.3-2.4-0.5-4.1-0.5h-6.1v13.7h5.9c1.7,0,3-0.2,4.1-0.5c1-0.4,1.9-0.8,2.6-1.5
			c0.7-0.6,1.2-1.4,1.5-2.2C821.2,145.7,821.4,144.7,821.4,143.7z"/>
		<path d="M848.3,171.2c0,0.1,0,0.3-0.1,0.4s-0.2,0.2-0.4,0.3c-0.2,0.1-0.4,0.1-0.7,0.2c-0.3,0-0.6,0.1-1,0.1c-0.4,0-0.8,0-1.1-0.1
			c-0.3,0-0.5-0.1-0.7-0.2c-0.2-0.1-0.3-0.2-0.4-0.3s-0.1-0.2-0.1-0.4V134c0-0.1,0-0.2,0.1-0.3c0.1-0.1,0.2-0.2,0.4-0.3
			s0.4-0.1,0.7-0.2c0.3,0,0.6-0.1,1-0.1c0.4,0,0.8,0,1,0.1c0.3,0,0.5,0.1,0.7,0.2c0.2,0.1,0.3,0.2,0.4,0.3s0.1,0.2,0.1,0.3V171.2z"
			/>
		<path d="M890.2,135.3c0,0.6-0.1,1.1-0.2,1.4c-0.2,0.3-0.4,0.5-0.7,0.5h-11.2v34c0,0.1,0,0.3-0.1,0.4s-0.2,0.2-0.3,0.3
			c-0.2,0.1-0.4,0.1-0.7,0.2c-0.3,0-0.6,0.1-1.1,0.1c-0.5,0-0.8,0-1.1-0.1c-0.3,0-0.5-0.1-0.7-0.2c-0.2-0.1-0.3-0.2-0.4-0.3
			s-0.1-0.2-0.1-0.4v-34h-11.2c-0.1,0-0.3,0-0.4-0.1s-0.2-0.2-0.3-0.3c-0.1-0.2-0.1-0.4-0.2-0.6c0-0.2-0.1-0.5-0.1-0.8
			c0-0.3,0-0.6,0.1-0.8c0-0.2,0.1-0.4,0.2-0.6c0.1-0.2,0.2-0.3,0.3-0.3s0.3-0.1,0.4-0.1h26.8c0.1,0,0.3,0,0.4,0.1s0.2,0.2,0.3,0.3
			c0.1,0.2,0.1,0.4,0.2,0.6C890.2,134.7,890.2,135,890.2,135.3z"/>
		<path d="M915,156.8v14.4c0,0.1,0,0.3-0.1,0.4s-0.2,0.2-0.4,0.3c-0.2,0.1-0.4,0.1-0.7,0.2c-0.3,0-0.6,0.1-1,0.1
			c-0.4,0-0.8,0-1.1-0.1c-0.3,0-0.5-0.1-0.7-0.2c-0.2-0.1-0.3-0.2-0.3-0.3s-0.1-0.2-0.1-0.4v-14.4l-12.5-21.9
			c-0.2-0.4-0.3-0.7-0.3-0.9c0-0.2,0-0.4,0.1-0.5s0.4-0.2,0.7-0.3c0.3,0,0.8-0.1,1.3-0.1c0.5,0,0.9,0,1.3,0.1s0.6,0.1,0.8,0.2
			s0.3,0.2,0.4,0.3c0.1,0.1,0.2,0.2,0.3,0.4l10.2,18.4h0.1l10-18.4c0.1-0.1,0.2-0.2,0.2-0.3c0.1-0.1,0.2-0.2,0.4-0.3
			c0.2-0.1,0.4-0.1,0.7-0.2c0.3,0,0.7-0.1,1.2-0.1c0.5,0,1,0,1.3,0.1c0.3,0,0.5,0.1,0.7,0.3c0.1,0.1,0.2,0.3,0.2,0.5
			c0,0.2-0.1,0.5-0.3,0.8L915,156.8z"/>
	</g>
	<g>
		<path d="M943.6,132.3c0,0.1,0,0.2,0,0.3c0,0.1,0,0.2-0.1,0.2c0,0.1-0.1,0.1-0.1,0.2c0,0-0.1,0.1-0.2,0.1h-2.9v9c0,0.1,0,0.1,0,0.1
			c0,0-0.1,0.1-0.2,0.1c-0.1,0-0.2,0.1-0.3,0.1c-0.1,0-0.3,0-0.4,0c-0.2,0-0.3,0-0.4,0c-0.1,0-0.2,0-0.3-0.1s-0.1-0.1-0.2-0.1
			s-0.1-0.1-0.1-0.1v-9h-2.8c-0.1,0-0.1,0-0.2-0.1s-0.1-0.1-0.1-0.2s-0.1-0.1-0.1-0.2c0-0.1,0-0.2,0-0.3c0-0.1,0-0.2,0-0.3
			c0-0.1,0-0.2,0.1-0.3c0-0.1,0.1-0.1,0.1-0.2s0.1-0.1,0.2-0.1h7.5c0.1,0,0.1,0,0.2,0.1c0,0,0.1,0.1,0.1,0.2c0,0.1,0.1,0.2,0.1,0.3
			C943.6,132,943.6,132.1,943.6,132.3z M958,142.1c0,0.1,0,0.1,0,0.1c0,0-0.1,0.1-0.1,0.1s-0.2,0.1-0.3,0.1s-0.3,0-0.4,0
			c-0.2,0-0.3,0-0.4,0c-0.1,0-0.2,0-0.3-0.1c-0.1,0-0.1-0.1-0.1-0.1s0-0.1,0-0.1v-8.8h0l-3.5,8.9c0,0.1-0.1,0.2-0.3,0.2
			c-0.2,0-0.4,0.1-0.7,0.1c-0.2,0-0.4,0-0.6-0.1s-0.2-0.1-0.3-0.2l-3.4-8.9h0v8.8c0,0.1,0,0.1,0,0.1s-0.1,0.1-0.1,0.1
			c-0.1,0-0.1,0.1-0.3,0.1c-0.1,0-0.2,0-0.4,0c-0.2,0-0.3,0-0.4,0c-0.1,0-0.2,0-0.3-0.1c-0.1,0-0.1-0.1-0.1-0.1c0,0,0-0.1,0-0.1
			v-9.8c0-0.3,0.1-0.5,0.2-0.6c0.2-0.1,0.3-0.2,0.6-0.2h1c0.2,0,0.4,0,0.6,0s0.3,0.1,0.4,0.2c0.1,0.1,0.2,0.2,0.3,0.3
			c0.1,0.1,0.2,0.3,0.3,0.6l2.7,7.2l2.9-7.2c0.2-0.4,0.4-0.7,0.6-0.9s0.5-0.3,0.9-0.3h1c0.2,0,0.4,0.1,0.6,0.2
			c0.1,0.1,0.2,0.3,0.2,0.6V142.1z"/>
	</g>
	<g>
		<path class="st3" d="M591.6,197.3c0,0.1,0,0.2,0,0.3c0,0.1,0,0.2-0.1,0.2c0,0.1-0.1,0.1-0.1,0.2c0,0-0.1,0.1-0.2,0.1h-2.9v9
			c0,0.1,0,0.1,0,0.1c0,0-0.1,0.1-0.2,0.1c-0.1,0-0.2,0.1-0.3,0.1c-0.1,0-0.3,0-0.4,0c-0.2,0-0.3,0-0.4,0c-0.1,0-0.2,0-0.3-0.1
			s-0.1-0.1-0.2-0.1c0,0-0.1-0.1-0.1-0.1v-9h-2.8c-0.1,0-0.1,0-0.2-0.1s-0.1-0.1-0.1-0.2s-0.1-0.1-0.1-0.2c0-0.1,0-0.2,0-0.3
			c0-0.1,0-0.2,0-0.3c0-0.1,0-0.2,0.1-0.3c0-0.1,0.1-0.1,0.1-0.2c0.1,0,0.1-0.1,0.2-0.1h7.5c0.1,0,0.1,0,0.2,0.1
			c0,0,0.1,0.1,0.1,0.2c0,0.1,0.1,0.2,0.1,0.3C591.6,197,591.6,197.1,591.6,197.3z M606,207.1c0,0.1,0,0.1,0,0.1
			c0,0-0.1,0.1-0.1,0.1s-0.2,0.1-0.3,0.1s-0.3,0-0.4,0c-0.2,0-0.3,0-0.4,0c-0.1,0-0.2,0-0.3-0.1c-0.1,0-0.1-0.1-0.1-0.1
			c0,0,0-0.1,0-0.1v-8.8h0l-3.5,8.9c0,0.1-0.1,0.2-0.3,0.2c-0.2,0-0.4,0.1-0.7,0.1c-0.2,0-0.4,0-0.6-0.1s-0.2-0.1-0.3-0.2l-3.4-8.9
			h0v8.8c0,0.1,0,0.1,0,0.1c0,0-0.1,0.1-0.1,0.1c-0.1,0-0.1,0.1-0.3,0.1c-0.1,0-0.2,0-0.4,0c-0.2,0-0.3,0-0.4,0
			c-0.1,0-0.2,0-0.3-0.1c-0.1,0-0.1-0.1-0.1-0.1c0,0,0-0.1,0-0.1v-9.8c0-0.3,0.1-0.5,0.2-0.6c0.2-0.1,0.3-0.2,0.6-0.2h1
			c0.2,0,0.4,0,0.6,0s0.3,0.1,0.4,0.2c0.1,0.1,0.2,0.2,0.3,0.3c0.1,0.1,0.2,0.3,0.3,0.6l2.7,7.2l2.9-7.2c0.2-0.4,0.4-0.7,0.6-0.9
			s0.5-0.3,0.9-0.3h1c0.2,0,0.4,0.1,0.6,0.2c0.1,0.1,0.2,0.3,0.2,0.6V207.1z"/>
	</g>
</g>
</svg>
