<svg xmlns="http://www.w3.org/2000/svg" viewBox="0 0 120.78 35"><defs><style>.cls-1{fill:#f94e4e;}.cls-2{fill:#345bb2;}.cls-3{fill:#595959;}.cls-4{fill:#4d4d4d;}</style></defs><title>housecom_logo_2</title><g id="sun"><path class="cls-1" d="M19.43,15.06h0L10.88,6.51a1,1,0,0,0-1.43,0l-.2.2a1,1,0,0,0,0,1.43l8.48,8.49.22-.29A5.84,5.84,0,0,1,19.43,15.06Z" transform="translate(-3.39 -1.12)"/><path class="cls-1" d="M23.21,14.27V2a.86.86,0,0,0-.86-.85h-.24a.85.85,0,0,0-.85.85V14.34a5.69,5.69,0,0,1,1.18-.13A4.9,4.9,0,0,1,23.21,14.27Z" transform="translate(-3.39 -1.12)"/><path class="cls-1" d="M26.84,16.24l.26.33,8.12-8.12a1,1,0,0,0,0-1.45L35,6.8a1,1,0,0,0-1.44,0L25.37,15A5.83,5.83,0,0,1,26.84,16.24Z" transform="translate(-3.39 -1.12)"/><path class="cls-1" d="M16.71,19.15H4.32a.86.86,0,0,0-.86.85v.39h13.2c0-.12,0-.25,0-.38A4.91,4.91,0,0,1,16.71,19.15Z" transform="translate(-3.39 -1.12)"/><path class="cls-1" d="M40.73,19.15H28.17a6.11,6.11,0,0,1,.06.86c0,.13,0,.26,0,.38H41.59V20A.85.85,0,0,0,40.73,19.15Z" transform="translate(-3.39 -1.12)"/><path class="cls-1" d="M28.17,19.15a5.7,5.7,0,0,0-1.07-2.58l-.26-.33A5.83,5.83,0,0,0,25.37,15l0,0a5.72,5.72,0,0,0-2.13-.72,4.9,4.9,0,0,0-.77-.06,5.69,5.69,0,0,0-1.18.13,5.51,5.51,0,0,0-1.83.72h0A5.84,5.84,0,0,0,18,16.34l-.22.29a5.85,5.85,0,0,0-1,2.52,4.91,4.91,0,0,0-.07.86c0,.13,0,.26,0,.38H28.22c0-.12,0-.25,0-.38A6.11,6.11,0,0,0,28.17,19.15Z" transform="translate(-3.39 -1.12)"/></g><g id="snow_flake"><path class="cls-2" d="M33.67,23.28H30.78c0,.12,0,.24,0,.37a6.11,6.11,0,0,0,.07.86h1.76A5.75,5.75,0,0,0,33.67,23.28Z" transform="translate(-3.39 -1.12)"/><path class="cls-2" d="M35.33,24.51h5.35a.85.85,0,0,0,.85-.86v-.37H34.09Z" transform="translate(-3.39 -1.12)"/><path class="cls-2" d="M3.46,23.28v.37a.86.86,0,0,0,.86.86H9.1l1.24-1.23Z" transform="translate(-3.39 -1.12)"/><path class="cls-2" d="M15.11,23.65v-.37H10.59A5.76,5.76,0,0,0,12,24.39l-.12.12H16A.86.86,0,0,1,15.11,23.65Z" transform="translate(-3.39 -1.12)"/><path class="cls-2" d="M22.21,24.45a5.84,5.84,0,0,0,.93-1.17H20.78A6,6,0,0,0,22.21,24.45Z" transform="translate(-3.39 -1.12)"/><path class="cls-2" d="M15.11,23.28v.37a.86.86,0,0,0,.86.86H19.4l1.23-1.23Z" transform="translate(-3.39 -1.12)"/><path class="cls-2" d="M30.78,23.28H23.3l1.24,1.23h6.29a6.11,6.11,0,0,1-.07-.86C30.76,23.52,30.77,23.4,30.78,23.28Z" transform="translate(-3.39 -1.12)"/><path class="cls-2" d="M33.67,23.28a5.75,5.75,0,0,1-1.08,1.23h0l6.83,6.84a.86.86,0,0,0,1.21,0l.17-.17a.86.86,0,0,0,0-1.21l-5.46-5.47-1.24-1.23Z" transform="translate(-3.39 -1.12)"/><path class="cls-2" d="M10.59,23.28h-.25L9.1,24.51,3.64,30a.86.86,0,0,0,0,1.21l.17.17a.85.85,0,0,0,1.21,0l6.84-6.84.12-.12A5.76,5.76,0,0,1,10.59,23.28Z" transform="translate(-3.39 -1.12)"/><path class="cls-2" d="M22.21,24.45a6,6,0,0,1-1.43-1.17h-.15L19.4,24.51l-3,3-1.14,1.14L10.28,29a.86.86,0,0,0-.8.91l0,.24a.86.86,0,0,0,.91.8l2.71-.18-3.6,3.6a.86.86,0,0,0,0,1.21l.17.17a.86.86,0,0,0,1.21,0l4.36-4.36.82-.82h0l4-4h0L22,24.7l0,0Z" transform="translate(-3.39 -1.12)"/><path class="cls-2" d="M23.14,23.28a5.84,5.84,0,0,1-.93,1.17l-.26.23,0,0L26.3,29l1.14,1.13.33,4.94a.86.86,0,0,0,.91.8l.24,0a.86.86,0,0,0,.8-.91l-.19-2.71,3.6,3.6a.88.88,0,0,0,1.22,0l.16-.17a.85.85,0,0,0,0-1.21l-4.35-4.36-.82-.82h0l-4-4v0l-.81-.81L23.3,23.28Z" transform="translate(-3.39 -1.12)"/><path class="cls-2" d="M27.42,30.28l6.47.54a.86.86,0,0,0,.93-.78l0-.24a.85.85,0,0,0-.78-.92l-8.67-.73Z" transform="translate(-3.39 -1.12)"/><path class="cls-2" d="M15.11,28.67l-.54,6.47a.86.86,0,0,0,.78.93l.24,0a.85.85,0,0,0,.92-.78l.73-8.66Z" transform="translate(-3.39 -1.12)"/></g><g id="text"><path class="cls-3" d="M48,26.83a.88.88,0,0,1,0,.29.66.66,0,0,1-.11.24.73.73,0,0,1-.17.18.86.86,0,0,1-.23.13,1.07,1.07,0,0,1-.27.08,1.55,1.55,0,0,1-.33,0H46a.17.17,0,0,1-.11,0,.18.18,0,0,1,0-.14V24.66a.18.18,0,0,1,0-.14.17.17,0,0,1,.11,0h.75a1.68,1.68,0,0,1,.49.06.76.76,0,0,1,.31.16.7.7,0,0,1,.19.26,1,1,0,0,1,.06.35,1.64,1.64,0,0,1,0,.23.72.72,0,0,1-.09.2.65.65,0,0,1-.13.16,1.22,1.22,0,0,1-.19.12.58.58,0,0,1,.25.09.65.65,0,0,1,.2.17.72.72,0,0,1,.14.24A.81.81,0,0,1,48,26.83Zm-.66-1.47a.78.78,0,0,0,0-.22.44.44,0,0,0-.1-.16.5.5,0,0,0-.19-.11,1.26,1.26,0,0,0-.3,0h-.46v1.07h.5a.7.7,0,0,0,.28-.05.52.52,0,0,0,.17-.12.42.42,0,0,0,.1-.17A.76.76,0,0,0,47.33,25.36Zm.2,1.5a.53.53,0,0,0-.05-.26.43.43,0,0,0-.13-.19.71.71,0,0,0-.23-.12,1.51,1.51,0,0,0-.34,0h-.53v1.17h.64a1,1,0,0,0,.26,0,.63.63,0,0,0,.2-.1.46.46,0,0,0,.13-.18A.47.47,0,0,0,47.53,26.86Z" transform="translate(-3.39 -1.12)"/><path class="cls-3" d="M49.6,27.78l-.3.84s0,.05-.08.07l-.19,0h-.11l-.06,0a.08.08,0,0,1,0,0,.07.07,0,0,1,0-.06l.32-.8-.05,0,0-.05-.81-2.19a.18.18,0,0,1,0-.09.06.06,0,0,1,0-.05l.06,0h.31l0,0a.08.08,0,0,1,0,.05l.66,1.84h0L50,25.43a.09.09,0,0,1,0-.06l.06,0h.24l.07,0a.06.06,0,0,1,0,.05.25.25,0,0,1,0,.08Z" transform="translate(-3.39 -1.12)"/><path class="cls-3" d="M54.52,27.71s0,0,0,0,0,0,0,0l-.07,0H54.2l-.07,0,0,0s0,0,0,0V26.25h-1.5v1.46s0,0,0,0a.05.05,0,0,1,0,0l-.07,0h-.21l-.06,0a.05.05,0,0,1,0,0s0,0,0,0V24.55s0,0,0,0a.05.05,0,0,1,0,0l.06,0h.21l.07,0a.05.05,0,0,1,0,0s0,0,0,0v1.32h1.5V24.55s0,0,0,0l0,0,.07,0h.21l.07,0s0,0,0,0,0,0,0,0Z" transform="translate(-3.39 -1.12)"/><path class="cls-3" d="M57.49,26.54a1.72,1.72,0,0,1-.08.52,1.16,1.16,0,0,1-.22.41,1,1,0,0,1-.37.26,1.13,1.13,0,0,1-.51.1,1.22,1.22,0,0,1-.49-.09.79.79,0,0,1-.35-.24,1.22,1.22,0,0,1-.21-.39,2,2,0,0,1-.07-.52,2.11,2.11,0,0,1,.07-.52,1.29,1.29,0,0,1,.22-.4.91.91,0,0,1,.37-.27,1.36,1.36,0,0,1,.51-.09,1.23,1.23,0,0,1,.49.08.93.93,0,0,1,.36.25,1,1,0,0,1,.21.39A2,2,0,0,1,57.49,26.54Zm-.44,0a2,2,0,0,0,0-.35,1.1,1.1,0,0,0-.12-.29.58.58,0,0,0-.21-.2.74.74,0,0,0-.34-.07.67.67,0,0,0-.33.07.55.55,0,0,0-.22.18.86.86,0,0,0-.13.29,1.37,1.37,0,0,0,0,.36,1.9,1.9,0,0,0,0,.35.84.84,0,0,0,.12.29.48.48,0,0,0,.22.2.67.67,0,0,0,.33.07.81.81,0,0,0,.33-.06.67.67,0,0,0,.22-.19.8.8,0,0,0,.13-.28A1.5,1.5,0,0,0,57.05,26.57Z" transform="translate(-3.39 -1.12)"/><path class="cls-3" d="M60.07,27.72a0,0,0,0,1,0,0s0,0,0,0l-.06,0h-.19l-.06,0a0,0,0,0,1,0,0,0,0,0,0,1,0,0v-.31a1.38,1.38,0,0,1-.39.32.94.94,0,0,1-.39.1.86.86,0,0,1-.38-.08.67.67,0,0,1-.26-.21.92.92,0,0,1-.14-.3,2.52,2.52,0,0,1,0-.43V25.42s0,0,0,0l0,0h.33l0,0s0,0,0,0v1.34a2.58,2.58,0,0,0,0,.32.67.67,0,0,0,.09.21.42.42,0,0,0,.16.13.46.46,0,0,0,.21,0,.51.51,0,0,0,.31-.12,1.48,1.48,0,0,0,.34-.33v-1.6a0,0,0,0,1,0,0s0,0,0,0H60l0,0a0,0,0,0,1,0,0Z" transform="translate(-3.39 -1.12)"/><path class="cls-3" d="M62.29,27.09a.62.62,0,0,1-.07.31.61.61,0,0,1-.18.24.87.87,0,0,1-.29.14,1.36,1.36,0,0,1-.36,0l-.24,0-.19,0-.15-.06-.09-.06a.1.1,0,0,1,0-.07.39.39,0,0,1,0-.13s0-.05,0-.08a.43.43,0,0,1,0-.05l0,0h0a.16.16,0,0,1,.09,0l.13.07.19.08a1,1,0,0,0,.26,0l.19,0a.4.4,0,0,0,.25-.18.43.43,0,0,0,0-.17.3.3,0,0,0,0-.16.77.77,0,0,0-.13-.12l-.18-.09-.21-.08a1,1,0,0,1-.21-.1.62.62,0,0,1-.32-.32.67.67,0,0,1-.05-.26.75.75,0,0,1,.05-.26.69.69,0,0,1,.16-.22.93.93,0,0,1,.26-.15,1.32,1.32,0,0,1,.37-.05h.18l.16,0,.13.05.08.05,0,0s0,0,0,0a.06.06,0,0,0,0,0v.15s0,0,0,.05,0,0,0,0h0l-.06,0-.12-.06-.16-.06a.66.66,0,0,0-.21,0,.58.58,0,0,0-.19,0,.27.27,0,0,0-.13.07.25.25,0,0,0-.08.1.31.31,0,0,0,0,.13.29.29,0,0,0,.05.17.41.41,0,0,0,.14.12l.18.09.21.09a1.45,1.45,0,0,1,.22.09l.19.13a.7.7,0,0,1,.13.19A.62.62,0,0,1,62.29,27.09Z" transform="translate(-3.39 -1.12)"/><path class="cls-3" d="M64.85,26.47a.18.18,0,0,1,0,.14.19.19,0,0,1-.12,0H63.17a1.29,1.29,0,0,0,0,.35.71.71,0,0,0,.13.26.66.66,0,0,0,.23.17.91.91,0,0,0,.35.06,1.23,1.23,0,0,0,.29,0l.23-.06.15-.06.09,0h0s0,0,0,0a.07.07,0,0,1,0,0,.17.17,0,0,1,0,.08v.05a.09.09,0,0,0,0,0s0,0,0,0l0,0-.08.05-.18.06a1.37,1.37,0,0,1-.25.05,1.55,1.55,0,0,1-.31,0,1.44,1.44,0,0,1-.49-.08.82.82,0,0,1-.36-.24.93.93,0,0,1-.22-.39,1.73,1.73,0,0,1-.07-.54,1.7,1.7,0,0,1,.07-.53,1.18,1.18,0,0,1,.22-.4.87.87,0,0,1,.35-.25,1.14,1.14,0,0,1,.46-.09,1.26,1.26,0,0,1,.46.08.92.92,0,0,1,.49.58,1.42,1.42,0,0,1,.06.42Zm-.43-.13a.72.72,0,0,0-.15-.52.56.56,0,0,0-.46-.18.59.59,0,0,0-.27.05.62.62,0,0,0-.2.16.71.71,0,0,0-.12.23.75.75,0,0,0,0,.26Z" transform="translate(-3.39 -1.12)"/><path class="cls-3" d="M67.74,27.31s0,.05,0,.07a.13.13,0,0,1,0,.06s0,0,0,0l0,0-.11.08a1.23,1.23,0,0,1-.2.1l-.28.09a1.72,1.72,0,0,1-.34,0,1.54,1.54,0,0,1-.58-.11,1.14,1.14,0,0,1-.44-.31,1.52,1.52,0,0,1-.28-.52,2.48,2.48,0,0,1-.1-.71,2.38,2.38,0,0,1,.11-.73,1.74,1.74,0,0,1,.29-.54,1.28,1.28,0,0,1,.46-.34,1.45,1.45,0,0,1,.59-.12,1.27,1.27,0,0,1,.28,0,1.83,1.83,0,0,1,.25.06.93.93,0,0,1,.2.1.48.48,0,0,1,.13.09l0,.05s0,0,0,0,0,0,0,.06V25s0,0,0,.06l0,0h0l-.1-.05L67.38,25l-.25-.11a1.13,1.13,0,0,0-.35-.05.9.9,0,0,0-.4.09.83.83,0,0,0-.3.26,1,1,0,0,0-.2.42,1.91,1.91,0,0,0-.07.56,2.26,2.26,0,0,0,.06.55,1.07,1.07,0,0,0,.2.4.84.84,0,0,0,.31.25,1.08,1.08,0,0,0,.42.08.9.9,0,0,0,.34-.05,1.18,1.18,0,0,0,.25-.1l.17-.11a.25.25,0,0,1,.11-.05h0s0,0,0,0,0,0,0,.06S67.74,27.27,67.74,27.31Z" transform="translate(-3.39 -1.12)"/><path class="cls-3" d="M70.4,26.54a1.72,1.72,0,0,1-.07.52,1.34,1.34,0,0,1-.22.41,1,1,0,0,1-.37.26,1.19,1.19,0,0,1-.51.1,1.22,1.22,0,0,1-.49-.09.79.79,0,0,1-.35-.24.92.92,0,0,1-.21-.39,1.68,1.68,0,0,1-.07-.52,1.72,1.72,0,0,1,.07-.52,1.11,1.11,0,0,1,.22-.4.91.91,0,0,1,.37-.27,1.29,1.29,0,0,1,.51-.09,1.23,1.23,0,0,1,.49.08.9.9,0,0,1,.35.25,1,1,0,0,1,.21.39A1.61,1.61,0,0,1,70.4,26.54Zm-.43,0a2,2,0,0,0,0-.35.83.83,0,0,0-.11-.29.7.7,0,0,0-.22-.2.69.69,0,0,0-.34-.07.66.66,0,0,0-.32.07.49.49,0,0,0-.22.18.7.7,0,0,0-.13.29,1.36,1.36,0,0,0,0,.36,1.87,1.87,0,0,0,0,.35.83.83,0,0,0,.11.29.6.6,0,0,0,.22.2.69.69,0,0,0,.34.07.79.79,0,0,0,.32-.06.71.71,0,0,0,.23-.19.79.79,0,0,0,.12-.28A1.5,1.5,0,0,0,70,26.57Z" transform="translate(-3.39 -1.12)"/><path class="cls-3" d="M74.42,27.72a0,0,0,0,1,0,0s0,0,0,0l-.07,0h-.2l-.07,0,0,0a0,0,0,0,1,0,0v-1.4a1,1,0,0,0,0-.26.49.49,0,0,0-.08-.21.35.35,0,0,0-.14-.13.46.46,0,0,0-.2,0,.53.53,0,0,0-.3.11,3.45,3.45,0,0,0-.32.33v1.61a0,0,0,0,1,0,0l0,0-.07,0h-.2l-.07,0,0,0a0,0,0,0,1,0,0v-1.4a1,1,0,0,0,0-.26.66.66,0,0,0-.08-.21.43.43,0,0,0-.14-.13.46.46,0,0,0-.2,0,.53.53,0,0,0-.3.11,2.55,2.55,0,0,0-.32.33v1.61a0,0,0,0,1,0,0l0,0-.07,0h-.2l-.07,0s0,0,0,0a0,0,0,0,1,0,0v-2.3a0,0,0,0,1,0,0s0,0,0,0h.3s0,0,0,0a0,0,0,0,1,0,0v.31a1.35,1.35,0,0,1,.38-.32.7.7,0,0,1,.36-.1,1,1,0,0,1,.26,0,.61.61,0,0,1,.2.09.54.54,0,0,1,.15.15.77.77,0,0,1,.1.18l.22-.21a.81.81,0,0,1,.2-.14.71.71,0,0,1,.18-.08.58.58,0,0,1,.19,0,.84.84,0,0,1,.37.07.83.83,0,0,1,.24.21.79.79,0,0,1,.13.31,1.45,1.45,0,0,1,0,.37Z" transform="translate(-3.39 -1.12)"/><path d="M49.33,16a.39.39,0,0,1,0,.21.1.1,0,0,1-.1.07H47.52v5.07a.13.13,0,0,1,0,.06.1.1,0,0,1,0,0l-.1,0H47l-.1,0a.1.1,0,0,1,0,0,.14.14,0,0,1,0-.06V16.27H45.14a.1.1,0,0,1,0-.05.16.16,0,0,1,0-.09.53.53,0,0,1,0-.13.41.41,0,0,1,0-.12.12.12,0,0,1,0-.09.09.09,0,0,1,0-.06h4.11a.15.15,0,0,1,0,.06.46.46,0,0,1,0,.09S49.33,15.94,49.33,16Z" transform="translate(-3.39 -1.12)"/><path d="M54.87,21.35a.08.08,0,0,1,0,0,.07.07,0,0,1-.05,0l-.09,0h-.28l-.08,0a.07.07,0,0,1-.05,0,.07.07,0,0,1,0,0V19.07H51.76v2.28a.08.08,0,0,1,0,0,.07.07,0,0,1-.05,0l-.08,0h-.28l-.09,0a.1.1,0,0,1-.05,0,.07.07,0,0,1,0,0V16.5a.06.06,0,0,1,0,0,.1.1,0,0,1,.05,0l.09,0h.28l.08,0a.07.07,0,0,1,.05,0,.08.08,0,0,1,0,0v2.07h2.53V16.5a.06.06,0,0,1,0,0,.07.07,0,0,1,.05,0l.08,0h.28l.09,0a.07.07,0,0,1,.05,0,.08.08,0,0,1,0,0Z" transform="translate(-3.39 -1.12)"/><path d="M60.12,21.2s0,.08,0,.11l0,.08,0,0-.06,0H57.53a.24.24,0,0,1-.15-.06.26.26,0,0,1-.08-.21V16.69a.26.26,0,0,1,.08-.21.24.24,0,0,1,.15-.06H60l0,.05a.15.15,0,0,1,0,.08.34.34,0,0,1,0,.11.31.31,0,0,1,0,.1.19.19,0,0,1,0,.08s0,0,0,0H57.88v1.69h1.86l0,0s0,.05,0,.08,0,.07,0,.11,0,.08,0,.11a.64.64,0,0,1,0,.07l0,0H57.88V21h2.17l0,.05a.24.24,0,0,1,0,.07S60.12,21.16,60.12,21.2Z" transform="translate(-3.39 -1.12)"/><path d="M65.67,21.35a.08.08,0,0,1,0,0s0,0,0,0l-.1,0h-.29l-.09,0a.1.1,0,0,1-.06-.05l0-.08-.44-1.19a2.3,2.3,0,0,0-.17-.39,1.29,1.29,0,0,0-.22-.3,1,1,0,0,0-.31-.2,1.41,1.41,0,0,0-.47-.07h-.56v2.19a.07.07,0,0,1,0,0,.1.1,0,0,1,0,0l-.09,0h-.27l-.1,0a.08.08,0,0,1,0,0,.08.08,0,0,1,0,0V16.69a.26.26,0,0,1,.08-.21.24.24,0,0,1,.15-.06h1.2a2.65,2.65,0,0,1,.75.09,1.5,1.5,0,0,1,.5.27,1,1,0,0,1,.3.4,1.25,1.25,0,0,1,.1.51,1.33,1.33,0,0,1-.07.45,1.15,1.15,0,0,1-.2.36,1.19,1.19,0,0,1-.31.28,1.64,1.64,0,0,1-.4.19,1.23,1.23,0,0,1,.25.14,1,1,0,0,1,.2.2,1.47,1.47,0,0,1,.16.28,1.75,1.75,0,0,1,.15.34l.44,1.16.06.18A.31.31,0,0,1,65.67,21.35Zm-.91-3.59a1,1,0,0,0-.06-.34.61.61,0,0,0-.18-.27A.77.77,0,0,0,64.2,17a1.91,1.91,0,0,0-.54-.07h-.79v1.79h.77a1.81,1.81,0,0,0,.52-.07.88.88,0,0,0,.34-.2.84.84,0,0,0,.2-.29A1.06,1.06,0,0,0,64.76,17.76Z" transform="translate(-3.39 -1.12)"/><path d="M73.21,21.35a.07.07,0,0,1,0,0,.1.1,0,0,1,0,0l-.09,0h-.27l-.08,0a.1.1,0,0,1,0,0,.07.07,0,0,1,0,0V16.94h0l-2,4.44a.12.12,0,0,1-.07.07.47.47,0,0,1-.19,0H70.3l-.08,0,0,0,0,0-1.88-4.44h0v4.41a.08.08,0,0,1,0,0,.08.08,0,0,1,0,0l-.09,0h-.27l-.09,0a.1.1,0,0,1-.05,0,.43.43,0,0,1,0,0V16.69a.26.26,0,0,1,.08-.21.27.27,0,0,1,.16-.06h.34l.19,0a.47.47,0,0,1,.14.08.41.41,0,0,1,.11.12l.09.17,1.62,3.79h0l1.68-3.77.1-.19a.77.77,0,0,1,.12-.13.37.37,0,0,1,.14-.07.55.55,0,0,1,.18,0H73a.27.27,0,0,1,.17.06.25.25,0,0,1,.07.21Z" transform="translate(-3.39 -1.12)"/><path d="M79.85,18.87A4.06,4.06,0,0,1,79.71,20a2.4,2.4,0,0,1-.44.84,1.83,1.83,0,0,1-.72.53,2.4,2.4,0,0,1-1,.19,2.61,2.61,0,0,1-1-.17,1.79,1.79,0,0,1-.7-.5,2.16,2.16,0,0,1-.41-.8,4.39,4.39,0,0,1,0-2.16,2.44,2.44,0,0,1,.44-.83,2.05,2.05,0,0,1,.73-.53,2.5,2.5,0,0,1,1-.18,2.37,2.37,0,0,1,1,.17,1.74,1.74,0,0,1,.7.49,2.29,2.29,0,0,1,.42.79A3.51,3.51,0,0,1,79.85,18.87Zm-.61,0a4.12,4.12,0,0,0-.08-.81,2,2,0,0,0-.28-.66,1.46,1.46,0,0,0-.51-.44,1.76,1.76,0,0,0-.77-.16,1.61,1.61,0,0,0-.76.17,1.5,1.5,0,0,0-.52.45,2,2,0,0,0-.28.67,3.42,3.42,0,0,0-.09.79,4.28,4.28,0,0,0,.08.84,1.8,1.8,0,0,0,.28.66,1.32,1.32,0,0,0,.5.44,1.9,1.9,0,0,0,1.55,0,1.51,1.51,0,0,0,.51-.46,2.09,2.09,0,0,0,.29-.68A4.09,4.09,0,0,0,79.24,18.91Z" transform="translate(-3.39 -1.12)"/><path d="M85.16,19.9a1.52,1.52,0,0,1-.15.69,1.74,1.74,0,0,1-.42.51,2.26,2.26,0,0,1-.64.32,2.83,2.83,0,0,1-1.31.06,4.28,4.28,0,0,1-.46-.13,2.27,2.27,0,0,1-.34-.15,1.27,1.27,0,0,1-.18-.11L81.6,21l0-.06s0-.05,0-.08a.37.37,0,0,1,0-.11.61.61,0,0,1,0-.14.36.36,0,0,1,0-.11.16.16,0,0,1,0-.07l.07,0a.33.33,0,0,1,.18.08,2.7,2.7,0,0,0,.31.17,2.2,2.2,0,0,0,1,.26,1.59,1.59,0,0,0,.5-.07,1,1,0,0,0,.4-.19,1,1,0,0,0,.27-.31.93.93,0,0,0,.09-.42.77.77,0,0,0-.12-.43A1.08,1.08,0,0,0,84,19.2a1.94,1.94,0,0,0-.45-.25l-.51-.22-.52-.26a2.14,2.14,0,0,1-.45-.32,1.36,1.36,0,0,1-.32-.45,1.48,1.48,0,0,1-.12-.61,1.31,1.31,0,0,1,.13-.59,1.37,1.37,0,0,1,.37-.46,1.91,1.91,0,0,1,.54-.31,2.17,2.17,0,0,1,.69-.1,2.41,2.41,0,0,1,.83.15,1.81,1.81,0,0,1,.31.13l.17.1.05.07,0,.06a.29.29,0,0,1,0,.09v.25a.3.3,0,0,1,0,.1.15.15,0,0,1,0,.06.07.07,0,0,1-.06,0,.36.36,0,0,1-.15-.08l-.28-.16-.39-.15a1.6,1.6,0,0,0-.51-.08,1.32,1.32,0,0,0-.42.07.88.88,0,0,0-.33.18.71.71,0,0,0-.21.27.72.72,0,0,0-.07.33.79.79,0,0,0,.12.45,1.12,1.12,0,0,0,.32.33,2.87,2.87,0,0,0,.46.25l.51.23a5,5,0,0,1,.52.25,1.8,1.8,0,0,1,.45.31,1.54,1.54,0,0,1,.33.43A1.4,1.4,0,0,1,85.16,19.9Z" transform="translate(-3.39 -1.12)"/><path d="M90.17,21.2a.37.37,0,0,1,0,.11s0,.06,0,.08l0,0,0,0H87.58a.24.24,0,0,1-.15-.06.26.26,0,0,1-.08-.21V16.69a.26.26,0,0,1,.08-.21.24.24,0,0,1,.15-.06h2.48a.1.1,0,0,1,0,.05.34.34,0,0,1,0,.08v.21l0,.08a.08.08,0,0,1,0,0H87.93v1.69h1.86a.08.08,0,0,1,0,0,.19.19,0,0,1,0,.08.61.61,0,0,1,0,.22.14.14,0,0,1,0,.07.1.1,0,0,1,0,0H87.93V21H90.1l0,.05s0,0,0,.07A.37.37,0,0,1,90.17,21.2Z" transform="translate(-3.39 -1.12)"/><path d="M95.69,20.75a.79.79,0,0,1,0,.17.28.28,0,0,1-.08.12,1,1,0,0,1-.18.14,1.39,1.39,0,0,1-.3.16l-.41.12a2.46,2.46,0,0,1-.49.05,2.37,2.37,0,0,1-.9-.17,2,2,0,0,1-.71-.51,2.22,2.22,0,0,1-.45-.8A3.06,3.06,0,0,1,92,19a3.31,3.31,0,0,1,.16-1.08,2.33,2.33,0,0,1,.46-.82,2,2,0,0,1,.7-.52,2.46,2.46,0,0,1,.91-.17,2.41,2.41,0,0,1,.84.15,1.91,1.91,0,0,1,.32.16.83.83,0,0,1,.21.14.25.25,0,0,1,.07.12.44.44,0,0,1,0,.18.37.37,0,0,1,0,.11.14.14,0,0,1,0,.07l0,.05h0a.25.25,0,0,1-.15-.07,1.52,1.52,0,0,0-.25-.17,2.06,2.06,0,0,0-.39-.17,1.86,1.86,0,0,0-.56-.07,1.59,1.59,0,0,0-.66.13,1.45,1.45,0,0,0-.51.41,1.89,1.89,0,0,0-.33.65,3.25,3.25,0,0,0,0,1.75,1.78,1.78,0,0,0,.34.64,1.46,1.46,0,0,0,.53.4,1.74,1.74,0,0,0,.69.14,1.6,1.6,0,0,0,.53-.08,2,2,0,0,0,.38-.17l.25-.17a.3.3,0,0,1,.16-.08.05.05,0,0,1,0,0l0,0s0,.05,0,.08S95.69,20.71,95.69,20.75Z" transform="translate(-3.39 -1.12)"/><path d="M101.45,19.5a2.56,2.56,0,0,1-.14.91,1.71,1.71,0,0,1-.4.6,1.54,1.54,0,0,1-.6.38,2.47,2.47,0,0,1-.79.13,2.37,2.37,0,0,1-.76-.12,2.18,2.18,0,0,1-.61-.36,1.47,1.47,0,0,1-.38-.59,2.68,2.68,0,0,1-.14-.95v-3a.08.08,0,0,1,0,0,.08.08,0,0,1,0,0l.09,0h.28l.09,0a.1.1,0,0,1,0,0,.06.06,0,0,1,0,0v2.95a2.52,2.52,0,0,0,.09.77,1.16,1.16,0,0,0,.27.44,1.12,1.12,0,0,0,.43.27,1.73,1.73,0,0,0,1.1,0,1.29,1.29,0,0,0,.42-.26,1.13,1.13,0,0,0,.27-.45,2.31,2.31,0,0,0,.08-.71v-3a.08.08,0,0,1,0,0s0,0,0,0l.09,0h.29l.09,0a.08.08,0,0,1,0,0,.06.06,0,0,1,0,0Z" transform="translate(-3.39 -1.12)"/><path d="M107.25,21.35a.07.07,0,0,1,0,0,.1.1,0,0,1,0,0l-.1,0h-.29l-.09,0-.06-.05,0-.08-.43-1.19a3.52,3.52,0,0,0-.17-.39,1.66,1.66,0,0,0-.22-.3,1.1,1.1,0,0,0-.31-.2,1.5,1.5,0,0,0-.47-.07h-.57v2.19a.07.07,0,0,1,0,0,.1.1,0,0,1,0,0l-.09,0H104l-.09,0a.1.1,0,0,1,0,0,.07.07,0,0,1,0,0V16.69a.25.25,0,0,1,.07-.21.29.29,0,0,1,.15-.06h1.2a2.65,2.65,0,0,1,.75.09,1.4,1.4,0,0,1,.5.27,1,1,0,0,1,.31.4,1.45,1.45,0,0,1,.1.51,1.33,1.33,0,0,1-.08.45,1,1,0,0,1-.2.36,1.15,1.15,0,0,1-.3.28,1.84,1.84,0,0,1-.4.19,1.09,1.09,0,0,1,.44.34,2.29,2.29,0,0,1,.17.28c0,.1.1.22.15.34l.43,1.16c0,.08,0,.14.07.18A.25.25,0,0,1,107.25,21.35Zm-.9-3.59a1,1,0,0,0-.06-.34.64.64,0,0,0-.19-.27.77.77,0,0,0-.32-.18,1.84,1.84,0,0,0-.53-.07h-.8v1.79h.77a1.94,1.94,0,0,0,.53-.07.84.84,0,0,0,.33-.2.72.72,0,0,0,.2-.29A1.06,1.06,0,0,0,106.35,17.76Z" transform="translate(-3.39 -1.12)"/><path d="M109.86,21.35a.07.07,0,0,1,0,0,.1.1,0,0,1,0,0l-.09,0h-.27l-.09,0a.07.07,0,0,1,0,0,.07.07,0,0,1,0,0V16.5a.06.06,0,0,1,0,0,.1.1,0,0,1,0,0l.09,0h.27l.09,0a.1.1,0,0,1,0,0,.06.06,0,0,1,0,0Z" transform="translate(-3.39 -1.12)"/><path d="M115.33,16.67a.42.42,0,0,1,0,.18.1.1,0,0,1-.1.06h-1.45v4.44a.08.08,0,0,1,0,0s0,0,0,0l-.09,0h-.28l-.09,0s0,0,0,0a.08.08,0,0,1,0,0V16.91h-1.51a.11.11,0,0,1,0,0,.14.14,0,0,1,0-.07.41.41,0,0,1,0-.11.34.34,0,0,1,0-.11.15.15,0,0,1,0-.08l0-.05h3.6l0,.05a.15.15,0,0,1,0,.08A.34.34,0,0,1,115.33,16.67Z" transform="translate(-3.39 -1.12)"/><path d="M118.56,19.47v1.88a.07.07,0,0,1,0,0,.1.1,0,0,1,0,0l-.09,0h-.27l-.09,0a.1.1,0,0,1,0,0,.07.07,0,0,1,0,0V19.47l-1.63-2.86a.34.34,0,0,1,0-.11.08.08,0,0,1,0-.07.19.19,0,0,1,.09,0h.34a.22.22,0,0,1,.1,0l.06,0,0,.05,1.34,2.4h0l1.31-2.4s0,0,0,0a.1.1,0,0,1,0,0l.09,0h.33a.19.19,0,0,1,.09,0,.07.07,0,0,1,0,.07.19.19,0,0,1,0,.11Z" transform="translate(-3.39 -1.12)"/><path d="M122.3,16.27s0,0,0,0,0,0,0,0h-.41v1.2h-.23s0,0,0,0V16.37h-.4s0,0,0,0,0,0,0,0a.06.06,0,0,1,0,0s0,0,0,0v0h1v0s0,0,0,0Zm1.87,1.28v0h0s0,0,0,0H124V16.4h0l-.46,1.16s0,0,0,0h-.15l0,0-.44-1.16h0v1.17h-.22v-1.3a.11.11,0,0,1,0-.08l.07,0h.2l.06,0,0,0,0,.07.36,1,.38-1a.23.23,0,0,1,.07-.11.21.21,0,0,1,.12,0h.12l.08,0a.11.11,0,0,1,0,.08Z" transform="translate(-3.39 -1.12)"/><path class="cls-4" d="M76.37,24.75a.09.09,0,0,1,0,.05,0,0,0,0,1,0,0,0,0,0,0,1,0,0H76v1.2h-.23v-1.2h-.38l0,0a0,0,0,0,1,0,0s0,0,0-.05,0,0,0,0a0,0,0,0,1,0,0l0,0h1a73806138536,73806138536,0,0,0,0,.06A.06.06,0,0,1,76.37,24.75ZM78.24,26s0,0,0,0h-.16s0,0,0,0h0s0,0,0,0V24.89h0L77.56,26s0,0,0,0h-.16s0,0,0,0l-.44-1.15h0v1.16h-.22v-1.3a.08.08,0,0,1,0-.07.09.09,0,0,1,.07,0H77l.06,0a.08.08,0,0,1,0,0l0,.07.35.95.38-.95a.52.52,0,0,1,.07-.11.21.21,0,0,1,.12,0h.13a.09.09,0,0,1,.07,0,.08.08,0,0,1,0,.07Z" transform="translate(-3.39 -1.12)"/></g></svg>